<svg version="1.1" id="Layer_1" xmlns="http://www.w3.org/2000/svg" xmlns:xlink="http://www.w3.org/1999/xlink" x="0px" y="0px"
	 width="100%" viewBox="0 0 2515 1902" enable-background="new 0 0 2515 1902" xml:space="preserve">
<path fill="transparent" opacity="1.000000" stroke="none" 
	d="
M2.000000,50.000000 
	C2.000000,34.005291 2.000000,18.010584 2.000000,2.000000 
	C824.056091,2.000000 1646.112183,2.000000 2468.552246,2.636745 
	C2465.286377,3.518018 2461.623535,3.641116 2457.988770,4.026120 
	C2426.250977,7.387763 2395.079346,13.700243 2364.232178,21.815878 
	C2308.776855,36.405869 2255.406738,56.590256 2203.762695,81.399849 
	C2149.639648,107.400345 2098.350830,138.154800 2050.070068,173.866348 
	C1993.960815,215.368301 1942.987183,262.396210 1898.132935,315.934784 
	C1850.676147,372.579376 1811.092285,434.237549 1779.997192,501.338043 
	C1762.639282,538.795288 1748.206665,577.319153 1736.107422,616.769287 
	C1723.913086,656.529297 1716.353271,697.345886 1707.673950,737.925964 
	C1693.483032,804.277100 1671.276611,867.776611 1637.693359,926.944458 
	C1610.387451,975.053101 1576.568726,1018.024780 1534.645264,1054.361450 
	C1482.860107,1099.245728 1423.766846,1130.687378 1358.343506,1150.746460 
	C1312.072144,1164.933472 1264.694946,1172.994019 1216.540894,1175.304810 
	C1188.400146,1176.655029 1160.090576,1174.706055 1131.865112,1173.943970 
	C1123.213867,1173.710327 1114.589233,1172.492065 1105.952271,1171.724731 
	C1108.714600,1173.454468 1111.630615,1173.504272 1114.427856,1174.105957 
	C1147.276855,1181.170776 1180.698486,1183.948364 1214.095581,1185.349365 
	C1242.271851,1186.531250 1270.599609,1185.440063 1298.804932,1184.146484 
	C1319.635010,1183.191284 1340.491211,1181.089722 1361.134888,1178.108887 
	C1424.734863,1168.924927 1485.489014,1150.559937 1542.565552,1120.525635 
	C1588.959961,1096.112427 1630.222900,1064.979614 1665.794312,1026.579102 
	C1701.537476,987.993347 1729.905273,944.381714 1752.048950,896.624634 
	C1775.242676,846.602722 1791.408203,794.398438 1801.982544,740.388550 
	C1808.738403,705.882446 1814.431274,671.145264 1822.084839,636.842773 
	C1839.327026,559.563782 1866.441284,485.834564 1904.163086,416.096954 
	C1946.506836,337.814697 2000.577515,268.871399 2066.942627,209.443436 
	C2120.326904,161.639267 2179.297607,122.213371 2243.062256,89.854736 
	C2285.508057,68.314644 2329.519775,50.480057 2374.945801,36.169331 
	C2418.089355,22.577715 2461.855469,11.747034 2506.725586,5.581964 
	C2509.920654,5.142948 2512.913330,3.228456 2516.000000,1.999967 
	C2516.666748,2.332997 2517.887451,2.631284 2517.911133,3.004757 
	C2518.077881,5.660380 2518.000000,8.331287 2518.000000,10.997299 
	C2518.000000,641.842407 2518.000000,1272.687500 2518.000000,1904.000000 
	C2023.277344,1904.000000 1528.554565,1904.000000 1032.932617,1903.309448 
	C1038.541138,1896.989746 1045.035400,1891.344971 1051.558838,1885.734253 
	C1073.869263,1866.544922 1096.190186,1847.367920 1119.113037,1827.934326 
	C1123.502197,1823.977295 1127.042603,1819.977905 1131.113037,1816.621460 
	C1144.077026,1805.931519 1157.434692,1795.713501 1170.280151,1784.886230 
	C1192.548096,1766.116699 1214.546265,1747.026978 1237.317871,1727.739746 
	C1244.925049,1721.509155 1251.860474,1715.597046 1258.821289,1709.715088 
	C1270.704102,1699.673828 1282.643311,1689.698975 1294.486694,1679.611450 
	C1318.679199,1659.005371 1342.823486,1638.342773 1367.615112,1617.392944 
	C1385.398071,1602.514160 1402.585327,1587.983154 1419.701416,1573.368896 
	C1444.638184,1552.077271 1469.524048,1530.725830 1495.066162,1509.063721 
	C1528.569580,1480.879272 1561.471436,1453.069824 1594.286743,1425.158691 
	C1603.850708,1417.023926 1613.168335,1408.599487 1623.256348,1400.184082 
	C1654.573120,1374.098022 1685.268188,1348.177979 1715.871582,1322.150024 
	C1726.209717,1313.357544 1736.315063,1304.291260 1747.188477,1295.089722 
	C1775.257080,1271.686890 1802.714111,1248.603394 1830.052490,1225.380249 
	C1847.002441,1210.981567 1863.772217,1196.370850 1881.304443,1181.602295 
	C1939.726196,1132.347900 1997.387573,1083.252686 2055.346191,1034.511108 
	C2060.337402,1030.313843 2061.802246,1026.255615 2061.788574,1020.183167 
	C2061.627441,949.540649 2061.732178,878.897583 2061.627197,808.254822 
	C2061.614014,799.313904 2061.037842,790.355652 2060.325195,781.437195 
	C2057.837158,750.294800 2052.208984,719.647644 2044.891846,689.323547 
	C2027.471313,617.128906 1999.646484,549.092957 1962.380005,484.899506 
	C1955.743408,473.467407 1948.711426,462.264771 1941.253784,449.951965 
	C1938.684692,454.280212 1936.745605,457.337555 1935.008301,460.505402 
	C1907.771729,510.166504 1886.476807,562.450989 1866.618042,615.372986 
	C1865.017334,619.638550 1865.177856,623.494141 1866.948242,627.745605 
	C1884.627808,670.200256 1897.892456,713.992004 1904.843628,759.487793 
	C1908.143311,781.083130 1911.425903,802.874695 1912.010254,824.649963 
	C1913.136230,866.605591 1912.190674,908.613953 1912.489868,950.597656 
	C1912.537476,957.279907 1910.472778,961.640686 1905.340332,965.816162 
	C1894.546509,974.597351 1884.315918,984.070801 1873.270020,993.419556 
	C1842.917358,1018.765381 1813.104736,1043.900024 1783.399780,1069.161255 
	C1770.091309,1080.478882 1756.998291,1092.049927 1743.166626,1103.755615 
	C1740.716919,1105.446777 1738.868164,1106.841187 1737.105225,1108.337036 
	C1710.615967,1130.814331 1684.097778,1153.258057 1657.674316,1175.812500 
	C1644.375854,1187.163696 1631.254150,1198.722046 1617.417236,1210.397339 
	C1586.764526,1235.985718 1556.698975,1261.306763 1526.753784,1286.769531 
	C1514.952881,1296.804077 1503.421143,1307.155273 1491.092773,1317.546387 
	C1472.654419,1332.706299 1454.826538,1347.607666 1437.141235,1362.676147 
	C1412.644165,1383.548584 1388.254395,1404.546753 1363.187500,1425.759521 
	C1334.196655,1450.034790 1305.783691,1473.979004 1277.499023,1498.073853 
	C1262.867432,1510.538208 1248.463379,1523.269775 1233.288574,1536.021729 
	C1203.998413,1560.373169 1175.322510,1584.520264 1146.780273,1608.824585 
	C1134.977661,1618.874634 1123.461304,1629.260864 1111.176147,1639.750488 
	C1083.504395,1662.786255 1056.471313,1685.565796 1029.371460,1708.401611 
	C1017.483337,1698.651733 1005.991211,1689.226562 994.196533,1679.183594 
	C952.071777,1643.256104 910.249512,1607.946655 868.004883,1572.182129 
	C847.644836,1554.817139 827.741882,1537.865967 807.759094,1521.009399 
	C790.077576,1506.094482 772.307312,1491.284668 754.240173,1475.913818 
	C726.066650,1452.016602 698.225281,1428.638672 670.395020,1405.247437 
	C664.968201,1400.686279 659.584961,1396.073242 653.928284,1390.874146 
	C630.645386,1370.696411 607.688599,1351.042114 584.549194,1331.605225 
	C575.719177,1324.187988 566.325989,1317.442749 557.461121,1310.064697 
	C550.897583,1304.602051 544.773376,1298.611206 538.016724,1292.392700 
	C512.888367,1270.928833 488.244598,1249.871338 463.485748,1228.950073 
	C450.367249,1217.864990 437.048767,1207.016602 423.575165,1195.440430 
	C404.981293,1179.154907 386.697784,1163.413208 368.265167,1147.848145 
	C351.098267,1133.351807 333.772614,1119.043213 316.200439,1104.116089 
	C303.264709,1092.879150 290.701385,1082.111328 278.011658,1071.494507 
	C262.792053,1058.760986 247.464584,1046.156372 231.925079,1032.888428 
	C221.347366,1024.045776 210.892029,1015.974731 200.742813,1007.535583 
	C187.079224,996.174072 174.029785,984.036438 159.953003,973.226501 
	C153.528610,968.293091 152.172379,963.038025 152.185242,955.613953 
	C152.375641,845.750488 152.316528,735.886536 152.316528,626.022705 
	C152.316528,622.456543 152.316528,618.890320 152.316528,614.322693 
	C156.968674,614.322693 160.542770,614.343018 164.116592,614.319275 
	C184.744995,614.182190 205.373306,614.034790 226.923431,614.074463 
	C256.564026,614.136536 285.282867,614.015015 314.923553,614.076416 
	C342.304291,614.513123 368.778656,614.059326 395.664093,614.540344 
	C395.664093,619.635010 395.664093,623.279602 395.664093,626.924255 
	C395.664093,715.153198 395.917786,803.383240 395.524109,891.610413 
	C395.389465,921.781067 399.530243,951.179871 407.853241,980.013733 
	C411.047791,991.080811 415.727722,1001.719116 419.727905,1013.283081 
	C423.793457,1023.106873 427.424896,1032.427368 432.007355,1041.254028 
	C450.126038,1076.153931 473.981934,1106.744385 502.916046,1133.306396 
	C510.219055,1140.010742 518.426025,1145.730225 526.521973,1152.498047 
	C541.263489,1162.327515 555.320557,1172.237915 570.236633,1180.619385 
	C587.821167,1190.500366 606.357300,1198.549438 626.644165,1204.104248 
	C643.034302,1208.222778 658.632324,1213.083130 674.595337,1215.228394 
	C693.574402,1217.779053 712.866943,1217.996460 732.843323,1219.407471 
	C736.586975,1219.168701 739.509644,1218.393433 742.435303,1218.382080 
	C766.434937,1218.288696 789.892761,1214.139160 812.775391,1207.513672 
	C828.557007,1202.944458 843.736389,1196.295654 859.863159,1190.448120 
	C902.283569,1172.060059 938.392395,1146.015869 969.383850,1111.680176 
	C992.685547,1086.301758 1011.253784,1058.555542 1025.369507,1027.839111 
	C1045.323730,984.417725 1055.883057,938.944336 1055.697510,891.050659 
	C1055.581543,861.101624 1055.359131,831.146851 1055.826782,801.204712 
	C1056.022705,788.660339 1057.404663,776.077271 1059.095215,763.626831 
	C1061.758057,744.014526 1069.812866,726.124573 1078.753784,708.023560 
	C1086.319702,696.545715 1092.582031,685.023804 1101.906372,675.472290 
	C1115.422607,661.626709 1129.916748,649.203308 1146.670288,639.344116 
	C1165.193604,628.443542 1185.214844,621.886230 1206.816162,617.357605 
	C1230.342651,613.076416 1252.939453,614.305481 1275.445190,618.975037 
	C1294.054321,622.836121 1311.348267,630.236755 1328.690063,639.347290 
	C1392.228271,676.726074 1420.677002,746.806885 1417.373413,792.325073 
	C1413.909424,792.325073 1410.333252,792.306396 1406.757202,792.328064 
	C1383.178223,792.470825 1359.599121,792.622253 1335.100098,792.574768 
	C1320.945435,792.361023 1307.710449,792.281555 1294.475952,792.339294 
	C1271.658447,792.438904 1248.841187,792.623840 1225.103760,792.575684 
	C1209.852295,792.360046 1195.520630,792.300903 1181.189331,792.334534 
	C1167.024536,792.367798 1152.846436,792.147522 1138.855347,792.507935 
	C1138.855347,842.874634 1138.855347,891.755859 1138.855347,940.381165 
	C1139.946167,940.915161 1140.518921,941.441101 1141.090942,941.440247 
	C1169.402100,941.397644 1197.713257,941.309875 1226.942383,941.415344 
	C1243.743164,941.626160 1259.626099,941.715515 1275.508545,941.654297 
	C1295.679565,941.576477 1315.849976,941.376465 1336.938599,941.419067 
	C1348.771484,941.629639 1359.686523,941.708679 1370.601196,941.658691 
	C1393.740601,941.552734 1416.879883,941.379578 1440.937256,941.423950 
	C1483.165527,941.523376 1524.475586,941.433533 1565.785645,941.317749 
	C1566.043091,941.317017 1566.311035,940.964539 1566.553345,940.752441 
	C1566.803467,940.533447 1567.027954,940.285217 1567.684326,939.629761 
	C1567.684326,936.402100 1567.684204,932.750854 1567.684204,929.099548 
	C1567.684204,890.112305 1567.802856,851.124573 1567.623169,812.138184 
	C1567.555908,797.530029 1566.974365,782.916992 1566.310669,768.320557 
	C1565.126099,742.269531 1559.416260,717.032654 1551.280640,692.385132 
	C1536.484985,647.560120 1513.008789,607.638855 1481.159790,572.851440 
	C1468.843506,559.398865 1455.962158,546.328552 1440.233887,535.647583 
	C1417.479126,517.306824 1393.054199,502.829895 1366.530273,492.083710 
	C1355.254883,487.515442 1343.523804,484.072601 1331.372070,479.701965 
	C1298.442749,469.299805 1265.277588,465.440369 1231.596924,465.789062 
	C1223.059204,465.877411 1214.535278,467.302643 1205.129639,467.918091 
	C1157.734863,472.140869 1114.020508,485.317413 1073.126465,509.624817 
	C1041.640503,526.984131 1014.868408,549.305664 991.431152,575.447144 
	C980.847778,587.251465 972.067810,600.672668 961.971802,613.746155 
	C945.367432,637.935547 933.254456,663.704041 923.900452,690.808838 
	C911.771973,725.953369 907.047607,762.365601 906.439880,799.314270 
	C905.909058,831.588257 906.464478,863.878662 906.288086,896.160400 
	C906.136169,923.961060 898.157288,949.731445 885.376221,974.215637 
	C877.009216,990.243958 865.646484,1004.035828 853.180176,1017.777466 
	C830.406860,1039.465942 804.786316,1055.175781 774.952759,1063.029053 
	C760.940674,1066.717529 746.349365,1068.206055 731.099731,1070.533325 
	C710.169373,1070.519775 690.356873,1068.467285 671.489014,1061.755859 
	C657.289673,1056.705078 643.683411,1049.987305 629.694214,1043.345459 
	C613.321167,1032.069092 598.013550,1020.159363 586.354736,1004.582520 
	C576.279602,991.121521 566.432129,977.202271 558.794250,962.301392 
	C553.271240,951.526672 550.624756,938.982788 548.355774,926.915649 
	C545.978821,914.274109 544.513306,901.261780 544.488342,888.407959 
	C544.223022,751.469604 544.323547,614.530640 544.323547,477.591827 
	C544.323547,473.727448 544.323547,469.863037 544.323547,466.107544 
	C537.950806,466.107544 532.976135,466.107544 527.080566,465.918030 
	C518.553162,465.708069 510.946533,465.640015 503.340363,465.675781 
	C476.894257,465.800110 450.448303,465.960388 423.081421,465.916565 
	C408.925751,465.706360 395.690735,465.624359 382.456299,465.680511 
	C359.637909,465.777283 336.819855,465.959991 313.080322,465.919037 
	C283.439880,465.857361 254.720779,465.983276 225.080170,465.922791 
	C200.347046,465.465546 176.515945,465.983765 152.847961,465.458588 
	C152.847961,375.779755 152.847961,287.584808 152.847961,198.322586 
	C156.925537,198.322586 160.498520,198.337082 164.071365,198.320297 
	C194.049362,198.179443 224.027313,198.032837 254.927185,198.068909 
	C282.675629,198.275681 309.502258,198.355591 336.328674,198.305771 
	C350.888062,198.278732 365.447083,198.030823 380.927734,198.065277 
	C401.046906,198.272903 420.244843,198.364197 439.442291,198.303802 
	C458.296326,198.244492 477.149841,198.031082 496.924896,198.070618 
	C531.643799,198.282547 565.441406,198.346603 599.238953,198.314194 
	C610.160217,198.303726 621.081299,198.039902 632.924133,198.075516 
	C682.260986,198.287949 730.676086,198.324905 779.091248,198.326050 
	C782.061829,198.326111 785.032471,198.043060 788.924805,198.074463 
	C840.589722,198.285522 891.332947,198.318985 942.076111,198.322922 
	C944.052063,198.323074 946.028015,198.040649 948.925293,198.074707 
	C997.598206,198.287308 1045.349731,198.325027 1093.101318,198.323181 
	C1096.735107,198.323044 1100.368774,198.042572 1104.923584,198.079132 
	C1138.314697,198.290283 1170.784668,198.355179 1203.254761,198.317474 
	C1214.837402,198.304031 1226.419922,198.042053 1238.923096,198.081299 
	C1267.935303,196.611694 1295.455688,200.934250 1322.872437,206.257660 
	C1336.541382,208.911682 1350.183472,211.704498 1364.373535,214.960037 
	C1383.392212,220.647339 1402.125122,225.063217 1420.296143,231.154846 
	C1444.432373,239.246201 1468.130493,248.644592 1492.630981,257.867981 
	C1522.104126,273.078918 1551.225464,287.421021 1579.719604,302.916260 
	C1595.692749,311.602478 1610.627563,322.197845 1626.337158,332.535889 
	C1663.416016,358.597412 1696.957886,387.940369 1729.226074,419.862854 
	C1753.356201,375.362854 1785.074097,338.020355 1819.260010,301.903198 
	C1809.771118,293.142151 1801.193726,284.908234 1792.284180,277.050812 
	C1752.849609,242.272949 1710.637695,211.235596 1665.662354,184.007828 
	C1654.918579,177.503555 1643.685669,171.807129 1632.315186,165.127563 
	C1587.846069,139.974472 1541.813110,119.738373 1493.664795,102.557846 
	C1468.136597,94.557793 1443.335815,86.422638 1418.219116,79.420357 
	C1401.085205,74.643623 1383.510254,71.449646 1365.572510,67.015991 
	C1358.829224,65.414612 1352.651855,64.309822 1346.461670,63.282055 
	C1322.070190,59.232327 1297.883789,53.559200 1272.923950,53.972534 
	C1271.631226,53.993935 1270.250854,53.883766 1269.049316,53.451347 
	C1258.961548,49.820827 1248.498047,49.847420 1237.082764,49.910614 
	C1206.343872,49.700600 1176.524536,49.639244 1146.705566,49.692886 
	C1132.471069,49.718494 1118.236938,49.962505 1103.082764,49.911865 
	C1057.728027,49.704430 1013.292908,49.674026 968.857788,49.700432 
	C961.906433,49.704563 954.955261,49.967075 947.084045,49.914383 
	C899.401306,49.706402 852.638550,49.678829 805.875732,49.700966 
	C799.918091,49.703785 793.960632,49.966164 787.083008,49.913216 
	C741.727600,49.704624 697.292236,49.672325 652.856873,49.697128 
	C645.905334,49.701008 638.953918,49.964565 631.081787,49.916348 
	C598.351990,49.708111 566.542786,49.648457 534.733704,49.696045 
	C521.823425,49.715359 508.913605,49.968163 495.082520,49.924438 
	C477.612061,49.715008 461.062408,49.630798 444.513336,49.692886 
	C423.010742,49.773560 401.508606,49.970562 379.085388,49.926140 
	C354.650330,49.716373 331.136017,49.638264 307.622070,49.699005 
	C289.749542,49.745178 271.877533,49.967888 253.084183,49.922169 
	C235.612946,49.712135 219.062592,49.626629 202.512772,49.688091 
	C181.008987,49.767952 159.505646,49.964676 137.080811,49.923374 
	C91.439667,49.823765 46.719833,49.911880 2.000000,50.000000 
z"/>
<path fill="transparent" opacity="1.000000" stroke="none" 
	d="
M1028.000000,1904.000000 
	C686.154541,1904.000000 344.309113,1904.000000 2.000000,1904.000000 
	C2.000000,1615.285278 2.000000,1326.570435 2.716487,1036.823853 
	C4.586330,1036.351318 5.920072,1036.697754 6.866878,1037.500488 
	C36.118725,1062.302002 65.280289,1087.210205 94.575005,1111.960693 
	C108.934898,1124.093140 123.531380,1135.945435 138.322632,1148.526123 
	C150.849365,1159.616699 162.996613,1170.198120 175.317795,1180.572876 
	C192.668137,1195.182495 210.147400,1209.639038 227.934555,1224.738403 
	C256.868439,1249.404053 285.439301,1273.492310 314.484680,1298.072021 
	C349.331024,1327.634644 383.702850,1356.705811 418.390930,1386.372803 
	C443.977051,1408.334961 469.210999,1429.744019 494.532104,1451.049561 
	C507.156494,1461.671997 519.940491,1472.104858 533.021606,1483.212036 
	C559.678284,1506.153076 585.919678,1528.559937 612.272522,1550.834961 
	C625.425537,1561.952881 638.782104,1572.829834 652.311951,1584.440674 
	C673.724426,1602.993408 694.833313,1620.966675 716.033630,1638.831299 
	C727.879333,1648.813110 739.876892,1658.614868 752.064453,1669.106079 
	C775.109741,1689.024536 797.861328,1708.376465 820.696533,1727.629028 
	C834.633789,1739.379883 848.699585,1750.978271 863.067261,1763.239746 
	C892.148376,1788.247803 920.819031,1812.721558 949.615356,1837.046631 
	C962.213013,1847.688232 975.067810,1858.025513 988.063110,1869.110107 
	C1001.546875,1881.146240 1014.773438,1892.573120 1028.000000,1904.000000 
z"/>
<path fill="#006EB8" opacity="1.000000" stroke="none" 
	d="
M138.020798,1147.924561 
	C123.531380,1135.945435 108.934898,1124.093140 94.575005,1111.960693 
	C65.280289,1087.210205 36.118725,1062.302002 6.866878,1037.500488 
	C5.920072,1036.697754 4.586330,1036.351318 2.716487,1035.896118 
	C2.000000,707.958191 2.000000,379.916412 2.000000,50.937317 
	C46.719833,49.911880 91.439667,49.823765 137.080139,50.853218 
	C138.007462,417.288727 138.014130,782.606628 138.020798,1147.924561 
z"/>
<path fill="#FF0303" opacity="1.000000" stroke="none" 
	d="
M2515.062744,2.000012 
	C2512.913330,3.228456 2509.920654,5.142948 2506.725586,5.581964 
	C2461.855469,11.747034 2418.089355,22.577715 2374.945801,36.169331 
	C2329.519775,50.480057 2285.508057,68.314644 2243.062256,89.854736 
	C2179.297607,122.213371 2120.326904,161.639267 2066.942627,209.443436 
	C2000.577515,268.871399 1946.506836,337.814697 1904.163086,416.096954 
	C1866.441284,485.834564 1839.327026,559.563782 1822.084839,636.842773 
	C1814.431274,671.145264 1808.738403,705.882446 1801.982544,740.388550 
	C1791.408203,794.398438 1775.242676,846.602722 1752.048950,896.624634 
	C1729.905273,944.381714 1701.537476,987.993347 1665.794312,1026.579102 
	C1630.222900,1064.979614 1588.959961,1096.112427 1542.565552,1120.525635 
	C1485.489014,1150.559937 1424.734863,1168.924927 1361.134888,1178.108887 
	C1340.491211,1181.089722 1319.635010,1183.191284 1298.804932,1184.146484 
	C1270.599609,1185.440063 1242.271851,1186.531250 1214.095581,1185.349365 
	C1180.698486,1183.948364 1147.276855,1181.170776 1114.427856,1174.105957 
	C1111.630615,1173.504272 1108.714600,1173.454468 1105.952271,1171.724731 
	C1114.589233,1172.492065 1123.213867,1173.710327 1131.865112,1173.943970 
	C1160.090576,1174.706055 1188.400146,1176.655029 1216.540894,1175.304810 
	C1264.694946,1172.994019 1312.072144,1164.933472 1358.343506,1150.746460 
	C1423.766846,1130.687378 1482.860107,1099.245728 1534.645264,1054.361450 
	C1576.568726,1018.024780 1610.387451,975.053101 1637.693359,926.944458 
	C1671.276611,867.776611 1693.483032,804.277100 1707.673950,737.925964 
	C1716.353271,697.345886 1723.913086,656.529297 1736.107422,616.769287 
	C1748.206665,577.319153 1762.639282,538.795288 1779.997192,501.338043 
	C1811.092285,434.237549 1850.676147,372.579376 1898.132935,315.934784 
	C1942.987183,262.396210 1993.960815,215.368301 2050.070068,173.866348 
	C2098.350830,138.154800 2149.639648,107.400345 2203.762695,81.399849 
	C2255.406738,56.590256 2308.776855,36.405869 2364.232178,21.815878 
	C2395.079346,13.700243 2426.250977,7.387763 2457.988770,4.026120 
	C2461.623535,3.641116 2465.286377,3.518018 2469.468018,2.636745 
	C2484.708496,2.000000 2499.416992,2.000000 2515.062744,2.000012 
z"/>
<path fill="#014088" opacity="1.000000" stroke="none" 
	d="
M1028.666626,1904.000000 
	C1014.773438,1892.573120 1001.546875,1881.146240 988.202515,1868.248047 
	C988.723206,1862.210815 989.905823,1857.646118 989.916870,1853.078491 
	C990.046326,1799.463745 989.999023,1745.848389 990.002869,1692.233276 
	C990.003052,1689.569580 989.501221,1686.738525 990.250732,1684.298096 
	C990.793457,1682.530884 993.022217,1681.281616 994.499084,1679.801392 
	C1005.991211,1689.226562 1017.483337,1698.651733 1029.371460,1708.401611 
	C1056.471313,1685.565796 1083.504395,1662.786255 1111.312866,1640.613281 
	C1112.725464,1645.786255 1113.906128,1650.351440 1113.917114,1654.919434 
	C1114.046265,1708.535278 1113.999023,1762.151611 1114.003052,1815.767822 
	C1114.003174,1818.431641 1113.501221,1821.263184 1114.251831,1823.703003 
	C1114.794556,1825.466919 1117.027710,1826.710693 1118.507080,1828.186279 
	C1096.190186,1847.367920 1073.869263,1866.544922 1051.558838,1885.734253 
	C1045.035400,1891.344971 1038.541138,1896.989746 1032.016724,1903.309448 
	C1031.111084,1904.000000 1030.222168,1904.000000 1028.666626,1904.000000 
z"/>
<path fill="#01165A" opacity="1.000000" stroke="none" 
	d="
M1873.854248,993.260132 
	C1884.315918,984.070801 1894.546509,974.597351 1905.340332,965.816162 
	C1910.472778,961.640686 1912.537476,957.279907 1912.489868,950.597656 
	C1912.190674,908.613953 1913.136230,866.605591 1912.010254,824.649963 
	C1911.425903,802.874695 1908.143311,781.083130 1904.843628,759.487793 
	C1897.892456,713.992004 1884.627808,670.200256 1866.948242,627.745605 
	C1865.177856,623.494141 1865.017334,619.638550 1866.618042,615.372986 
	C1886.476807,562.450989 1907.771729,510.166504 1935.008301,460.505402 
	C1936.745605,457.337555 1938.684692,454.280212 1941.253784,449.951965 
	C1948.711426,462.264771 1955.743408,473.467407 1962.380005,484.899506 
	C1999.646484,549.092957 2027.471313,617.128906 2044.891846,689.323547 
	C2052.208984,719.647644 2057.837158,750.294800 2060.325195,781.437195 
	C2061.037842,790.355652 2061.614014,799.313904 2061.627197,808.254822 
	C2061.732178,878.897583 2061.627441,949.540649 2061.788574,1020.183167 
	C2061.802246,1026.255615 2060.337402,1030.313843 2055.346191,1034.511108 
	C1997.387573,1083.252686 1939.726196,1132.347900 1880.996338,1180.686646 
	C1879.337891,1175.497925 1878.098633,1170.973389 1878.087036,1166.445801 
	C1877.951294,1113.391968 1878.002319,1060.337769 1877.993652,1007.283630 
	C1877.993164,1004.301147 1878.376099,1001.203308 1877.687622,998.376587 
	C1877.223877,996.472717 1875.187256,994.952148 1873.854248,993.260132 
z"/>
<path fill="#005BA4" opacity="1.000000" stroke="none" 
	d="
M526.217590,1151.902344 
	C518.426025,1145.730225 510.219055,1140.010742 502.916046,1133.306396 
	C473.981934,1106.744385 450.126038,1076.153931 432.007355,1041.254028 
	C427.424896,1032.427368 423.793457,1023.106873 420.056274,1012.539490 
	C424.154388,1005.861633 424.039642,999.898438 424.038025,993.841125 
	C423.991730,817.929749 424.001526,642.018372 424.002289,466.106995 
	C450.448303,465.960388 476.894257,465.800110 503.340363,465.675781 
	C510.946533,465.640015 518.553162,465.708069 527.079834,466.848206 
	C528.000000,691.791626 528.009644,915.615356 527.925781,1139.439087 
	C527.924255,1143.593750 526.811707,1147.747925 526.217590,1151.902344 
z"/>
<path fill="#0068B3" opacity="1.000000" stroke="none" 
	d="
M138.322632,1148.526123 
	C138.014130,782.606628 138.007462,417.288727 138.001450,51.040947 
	C159.505646,49.964676 181.008987,49.767952 202.512772,49.688091 
	C219.062592,49.626629 235.612946,49.712135 253.082901,50.851971 
	C254.003586,100.610428 254.004440,149.249191 254.005280,197.887970 
	C224.027313,198.032837 194.049362,198.179443 164.071365,198.320297 
	C160.498520,198.337082 156.925537,198.322586 152.847961,198.322586 
	C152.847961,287.584808 152.847961,375.779755 152.847961,465.458588 
	C176.515945,465.983765 200.347046,465.465546 225.079681,466.852814 
	C226.001007,516.609741 226.001343,565.250305 226.001663,613.890869 
	C205.373306,614.034790 184.744995,614.182190 164.116592,614.319275 
	C160.542770,614.343018 156.968674,614.322693 152.316528,614.322693 
	C152.316528,618.890320 152.316528,622.456543 152.316528,626.022705 
	C152.316528,735.886536 152.375641,845.750488 152.185242,955.613953 
	C152.172379,963.038025 153.528610,968.293091 159.953003,973.226501 
	C174.029785,984.036438 187.079224,996.174072 200.742813,1007.535583 
	C210.892029,1015.974731 221.347366,1024.045776 231.871445,1033.858643 
	C232.051025,1094.204224 232.026276,1152.971924 231.997498,1211.739502 
	C231.996201,1214.395386 232.494980,1217.213501 231.757568,1219.652832 
	C231.224518,1221.416138 229.026840,1222.676270 227.571564,1224.160889 
	C210.147400,1209.639038 192.668137,1195.182495 175.317795,1180.572876 
	C162.996613,1170.198120 150.849365,1159.616699 138.322632,1148.526123 
z"/>
<path fill="#01428A" opacity="1.000000" stroke="none" 
	d="
M962.469604,613.360352 
	C972.067810,600.672668 980.847778,587.251465 991.431152,575.447144 
	C1014.868408,549.305664 1041.640503,526.984131 1073.257812,510.488586 
	C1074.727661,515.789062 1075.907227,520.355896 1075.917358,524.925354 
	C1076.043823,581.555359 1075.950439,638.185913 1076.094116,694.815857 
	C1076.105591,699.347534 1077.449707,703.875732 1078.174561,708.405579 
	C1069.812866,726.124573 1061.758057,744.014526 1059.095215,763.626831 
	C1057.404663,776.077271 1056.022705,788.660339 1055.826782,801.204712 
	C1055.359131,831.146851 1055.581543,861.101624 1055.697510,891.050659 
	C1055.883057,938.944336 1045.323730,984.417725 1025.369507,1027.839111 
	C1011.253784,1058.555542 992.685547,1086.301758 969.058655,1110.749512 
	C967.395569,1105.281982 966.091309,1100.409912 966.087952,1095.536987 
	C965.981018,939.651489 966.000427,783.766052 965.997070,627.880554 
	C965.997009,624.883301 966.370483,621.801208 965.784973,618.918030 
	C965.379883,616.923340 963.622681,615.203125 962.469604,613.360352 
z"/>
<path fill="#012C72" opacity="1.000000" stroke="none" 
	d="
M1440.592896,536.134155 
	C1455.962158,546.328552 1468.843506,559.398865 1481.159790,572.851440 
	C1513.008789,607.638855 1536.484985,647.560120 1551.280640,692.385132 
	C1559.416260,717.032654 1565.126099,742.269531 1566.310669,768.320557 
	C1566.974365,782.916992 1567.555908,797.530029 1567.623169,812.138184 
	C1567.802856,851.124573 1567.684204,890.112305 1567.684204,929.099548 
	C1567.684204,932.750854 1567.684326,936.402100 1567.684326,939.629761 
	C1567.027954,940.285217 1566.803467,940.533447 1566.553345,940.752441 
	C1566.311035,940.964539 1566.043091,941.317017 1565.785645,941.317749 
	C1524.475586,941.433533 1483.165527,941.523376 1440.933716,940.536377 
	C1440.008057,809.333496 1439.998413,679.208374 1440.025146,549.083252 
	C1440.026001,544.766846 1440.395264,540.450500 1440.592896,536.134155 
z"/>
<path fill="#01468E" opacity="1.000000" stroke="none" 
	d="
M961.971802,613.746094 
	C963.622681,615.203125 965.379883,616.923340 965.784973,618.918030 
	C966.370483,621.801208 965.997009,624.883301 965.997070,627.880554 
	C966.000427,783.766052 965.981018,939.651489 966.087952,1095.536987 
	C966.091309,1100.409912 967.395569,1105.281982 968.418518,1111.085205 
	C938.392395,1146.015869 902.283569,1172.060059 859.094727,1189.935547 
	C857.098694,1185.695312 856.080200,1181.840698 856.071350,1177.983765 
	C855.962036,1130.379761 856.075806,1082.775146 855.903198,1035.171509 
	C855.881836,1029.280396 854.538574,1023.394043 853.807861,1017.505493 
	C865.646484,1004.035828 877.009216,990.243958 885.376221,974.215637 
	C898.157288,949.731445 906.136169,923.961060 906.288086,896.160400 
	C906.464478,863.878662 905.909058,831.588257 906.439880,799.314270 
	C907.047607,762.365601 911.771973,725.953369 923.900452,690.808838 
	C933.254456,663.704041 945.367432,637.935547 961.971802,613.746094 
z"/>
<path fill="#013077" opacity="1.000000" stroke="none" 
	d="
M1440.233887,535.647583 
	C1440.395264,540.450500 1440.026001,544.766846 1440.025146,549.083252 
	C1439.998413,679.208374 1440.008057,809.333496 1440.015625,940.346252 
	C1416.879883,941.379578 1393.740601,941.552734 1370.601196,941.658691 
	C1359.686523,941.708679 1348.771484,941.629639 1336.934814,940.531860 
	C1336.015381,890.559998 1336.017700,841.665466 1336.020142,792.770874 
	C1359.599121,792.622253 1383.178223,792.470825 1406.757202,792.328064 
	C1410.333252,792.306396 1413.909424,792.325073 1417.373413,792.325073 
	C1420.677002,746.806885 1392.228271,676.726074 1329.534912,638.884338 
	C1330.584839,634.118591 1331.897705,630.340637 1331.908447,626.559082 
	C1332.046875,577.745789 1331.999756,528.932007 1331.999756,480.118347 
	C1343.523804,484.072601 1355.254883,487.515442 1366.530273,492.083710 
	C1393.054199,502.829895 1417.479126,517.306824 1440.233887,535.647583 
z"/>
<path fill="#01569F" opacity="1.000000" stroke="none" 
	d="
M526.521973,1152.498047 
	C526.811707,1147.747925 527.924255,1143.593750 527.925781,1139.439087 
	C528.009644,915.615356 528.000000,691.791626 528.000732,467.037720 
	C532.976135,466.107544 537.950806,466.107544 544.323547,466.107544 
	C544.323547,469.863037 544.323547,473.727448 544.323547,477.591827 
	C544.323547,614.530640 544.223022,751.469604 544.488342,888.407959 
	C544.513306,901.261780 545.978821,914.274109 548.355774,926.915649 
	C550.624756,938.982788 553.271240,951.526672 558.794250,962.301392 
	C566.432129,977.202271 576.279602,991.121521 586.354736,1004.582520 
	C598.013550,1020.159363 613.321167,1032.069092 628.916626,1043.543701 
	C627.505493,1047.756836 626.106445,1051.103760 626.097229,1054.454468 
	C625.961182,1104.184082 626.009216,1153.914307 626.013733,1203.644287 
	C606.357300,1198.549438 587.821167,1190.500366 570.236633,1180.619385 
	C555.320557,1172.237915 541.263489,1162.327515 526.521973,1152.498047 
z"/>
<path fill="#012268" opacity="1.000000" stroke="none" 
	d="
M1632.677734,165.739166 
	C1643.685669,171.807129 1654.918579,177.503555 1665.662354,184.007828 
	C1710.637695,211.235596 1752.849609,242.272949 1792.284180,277.050812 
	C1801.193726,284.908234 1809.771118,293.142151 1819.260010,301.903198 
	C1785.074097,338.020355 1753.356201,375.362854 1729.226074,419.862854 
	C1696.957886,387.940369 1663.416016,358.597412 1626.671997,331.774597 
	C1627.133423,326.496033 1627.936401,322.582367 1627.943604,318.667175 
	C1628.030884,271.789612 1627.998413,224.911850 1628.003540,178.034149 
	C1628.003784,175.374924 1627.494629,172.534012 1628.274658,170.117279 
	C1628.839844,168.366592 1631.147217,167.178284 1632.677734,165.739166 
z"/>
<path fill="#0160AA" opacity="1.000000" stroke="none" 
	d="
M423.081421,465.916595 
	C424.001526,642.018372 423.991730,817.929749 424.038025,993.841125 
	C424.039642,999.898438 424.154388,1005.861633 420.059174,1011.809204 
	C415.727722,1001.719116 411.047791,991.080811 407.853241,980.013733 
	C399.530243,951.179871 395.389465,921.781067 395.524109,891.610413 
	C395.917786,803.383240 395.664093,715.153198 395.664093,626.924255 
	C395.664093,623.279602 395.664093,619.635010 395.664093,614.540344 
	C368.778656,614.059326 342.304291,614.513123 314.922974,613.146240 
	C314.000916,563.390930 314.001282,514.748779 314.001678,466.106628 
	C336.819855,465.959991 359.637909,465.777283 382.456299,465.680511 
	C395.690735,465.624359 408.925751,465.706360 423.081421,465.916595 
z"/>
<path fill="#011C62" opacity="1.000000" stroke="none" 
	d="
M1873.270020,993.419617 
	C1875.187256,994.952148 1877.223877,996.472717 1877.687622,998.376587 
	C1878.376099,1001.203308 1877.993164,1004.301147 1877.993652,1007.283630 
	C1878.002319,1060.337769 1877.951294,1113.391968 1878.087036,1166.445801 
	C1878.098633,1170.973389 1879.337891,1175.497925 1880.314697,1180.939453 
	C1863.772217,1196.370850 1847.002441,1210.981567 1830.052490,1225.380249 
	C1802.714111,1248.603394 1775.257080,1271.686890 1747.002441,1294.173950 
	C1745.436523,1288.310669 1744.111938,1283.104858 1744.092896,1277.894409 
	C1743.881470,1219.765381 1743.871582,1161.635620 1743.807495,1103.505981 
	C1756.998291,1092.049927 1770.091309,1080.478882 1783.399780,1069.161255 
	C1813.104736,1043.900024 1842.917358,1018.765381 1873.270020,993.419617 
z"/>
<path fill="#01347B" opacity="1.000000" stroke="none" 
	d="
M1366.987671,1617.703613 
	C1342.823486,1638.342773 1318.679199,1659.005371 1294.486694,1679.611450 
	C1282.643311,1689.698975 1270.704102,1699.673828 1258.821289,1709.715088 
	C1251.860474,1715.597046 1244.925049,1721.509155 1237.131592,1726.768433 
	C1235.523193,1720.917480 1234.114502,1715.707886 1234.099121,1710.494141 
	C1233.927612,1652.289917 1233.971069,1594.085205 1233.956543,1535.880615 
	C1248.463379,1523.269775 1262.867432,1510.538208 1277.499023,1498.073853 
	C1305.783691,1473.979004 1334.196655,1450.034790 1363.241455,1426.729248 
	C1363.951050,1485.727783 1363.901001,1544.025269 1364.129395,1602.321777 
	C1364.149536,1607.452637 1365.991699,1612.576538 1366.987671,1617.703613 
z"/>
<path fill="#012E75" opacity="1.000000" stroke="none" 
	d="
M1367.615112,1617.392944 
	C1365.991699,1612.576538 1364.149536,1607.452637 1364.129395,1602.321777 
	C1363.901001,1544.025269 1363.951050,1485.727783 1363.872681,1426.460815 
	C1388.254395,1404.546753 1412.644165,1383.548584 1437.141235,1362.676147 
	C1454.826538,1347.607666 1472.654419,1332.706299 1491.159668,1318.444580 
	C1492.600220,1331.039673 1493.845215,1342.917847 1493.904053,1354.801880 
	C1494.137207,1402.016968 1493.988892,1449.234009 1494.018921,1496.450317 
	C1494.021606,1500.766968 1494.287720,1505.083374 1494.431519,1509.399902 
	C1469.524048,1530.725830 1444.638184,1552.077271 1419.701416,1573.368896 
	C1402.585327,1587.983154 1385.398071,1602.514160 1367.615112,1617.392944 
z"/>
<path fill="#01286E" opacity="1.000000" stroke="none" 
	d="
M1495.066162,1509.063721 
	C1494.287720,1505.083374 1494.021606,1500.766968 1494.018921,1496.450317 
	C1493.988892,1449.234009 1494.137207,1402.016968 1493.904053,1354.801880 
	C1493.845215,1342.917847 1492.600220,1331.039673 1491.833618,1318.260498 
	C1503.421143,1307.155273 1514.952881,1296.804077 1526.753784,1286.769531 
	C1556.698975,1261.306763 1586.764526,1235.985718 1617.522095,1211.215332 
	C1618.841553,1216.392456 1619.914917,1220.960815 1619.924683,1225.531616 
	C1620.041382,1280.104370 1619.969971,1334.677368 1620.065918,1389.250244 
	C1620.072510,1393.020874 1618.504028,1397.381104 1622.599121,1400.308105 
	C1613.168335,1408.599487 1603.850708,1417.023926 1594.286743,1425.158691 
	C1561.471436,1453.069824 1528.569580,1480.879272 1495.066162,1509.063721 
z"/>
<path fill="#012268" opacity="1.000000" stroke="none" 
	d="
M1623.256470,1400.184082 
	C1618.504028,1397.381104 1620.072510,1393.020874 1620.065918,1389.250244 
	C1619.969971,1334.677368 1620.041382,1280.104370 1619.924683,1225.531616 
	C1619.914917,1220.960815 1618.841553,1216.392456 1618.157471,1211.004883 
	C1631.254150,1198.722046 1644.375854,1187.163696 1657.674316,1175.812500 
	C1684.097778,1153.258057 1710.615967,1130.814331 1737.105225,1108.337036 
	C1738.868164,1106.841187 1740.716919,1105.446777 1743.166626,1103.755615 
	C1743.871582,1161.635620 1743.881470,1219.765381 1744.092896,1277.894409 
	C1744.111938,1283.104858 1745.436523,1288.310669 1746.340820,1294.434326 
	C1736.315063,1304.291260 1726.209717,1313.357544 1715.871582,1322.150024 
	C1685.268188,1348.177979 1654.573120,1374.098022 1623.256470,1400.184082 
z"/>
<path fill="#01468E" opacity="1.000000" stroke="none" 
	d="
M994.196533,1679.183594 
	C993.022217,1681.281616 990.793457,1682.530884 990.250732,1684.298096 
	C989.501221,1686.738525 990.003052,1689.569580 990.002869,1692.233276 
	C989.999023,1745.848389 990.046326,1799.463745 989.916870,1853.078491 
	C989.905823,1857.646118 988.723206,1862.210815 987.945312,1867.638916 
	C975.067810,1858.025513 962.213013,1847.688232 949.615356,1837.046631 
	C920.819031,1812.721558 892.148376,1788.247803 863.846680,1762.739502 
	C864.844421,1757.795898 865.917542,1753.948364 865.925354,1750.098633 
	C866.035095,1695.802490 865.938293,1641.505615 866.105530,1587.209839 
	C866.120483,1582.349976 867.618225,1577.494507 868.427368,1572.637085 
	C910.249512,1607.946655 952.071777,1643.256104 994.196533,1679.183594 
z"/>
<path fill="#004891" opacity="1.000000" stroke="none" 
	d="
M948.003967,197.889893 
	C946.028015,198.040649 944.052063,198.323074 942.076111,198.322922 
	C891.332947,198.318985 840.589722,198.285522 788.923584,197.144318 
	C788.001404,147.390396 788.002197,98.749344 788.003052,50.108299 
	C793.960632,49.966164 799.918091,49.703785 805.875732,49.700966 
	C852.638550,49.678829 899.401306,49.706402 947.083008,50.844421 
	C948.002625,100.610092 948.003296,149.250000 948.003967,197.889893 
z"/>
<path fill="#013A81" opacity="1.000000" stroke="none" 
	d="
M1233.288574,1536.021729 
	C1233.971069,1594.085205 1233.927612,1652.289917 1234.099121,1710.494141 
	C1234.114502,1715.707886 1235.523193,1720.917480 1236.471191,1727.100342 
	C1214.546265,1747.026978 1192.548096,1766.116699 1170.280151,1784.886230 
	C1157.434692,1795.713501 1144.077026,1805.931519 1131.113037,1816.621460 
	C1127.042603,1819.977905 1123.502197,1823.977295 1119.113037,1827.934326 
	C1117.027710,1826.710693 1114.794556,1825.466919 1114.251831,1823.703003 
	C1113.501221,1821.263184 1114.003174,1818.431641 1114.003052,1815.767822 
	C1113.999023,1762.151611 1114.046265,1708.535278 1113.917114,1654.919434 
	C1113.906128,1650.351440 1112.725464,1645.786255 1111.951538,1640.357178 
	C1123.461304,1629.260864 1134.977661,1618.874634 1146.780273,1608.824585 
	C1175.322510,1584.520264 1203.998413,1560.373169 1233.288574,1536.021729 
z"/>
<path fill="#014088" opacity="1.000000" stroke="none" 
	d="
M948.925293,198.074707 
	C948.003296,149.250000 948.002625,100.610092 948.002930,51.040154 
	C954.955261,49.967075 961.906433,49.704563 968.857788,49.700432 
	C1013.292908,49.674026 1057.728027,49.704430 1103.081543,50.842091 
	C1104.000854,100.609505 1104.001709,149.250961 1104.002563,197.892426 
	C1100.368774,198.042572 1096.735107,198.323044 1093.101318,198.323181 
	C1045.349731,198.325027 997.598206,198.287308 948.925293,198.074707 
z"/>
<path fill="#015099" opacity="1.000000" stroke="none" 
	d="
M787.083008,49.913216 
	C788.002197,98.749344 788.001404,147.390396 788.001831,196.961578 
	C785.032471,198.043060 782.061829,198.326111 779.091248,198.326050 
	C730.676086,198.324905 682.260986,198.287949 632.923218,197.145386 
	C632.001221,147.390488 632.001831,98.749268 632.002441,50.108047 
	C638.953918,49.964565 645.905334,49.701008 652.856873,49.697128 
	C697.292236,49.672325 741.727600,49.704624 787.083008,49.913216 
z"/>
<path fill="#005BA4" opacity="1.000000" stroke="none" 
	d="
M532.652344,1482.623413 
	C519.940491,1472.104858 507.156494,1461.671997 494.532104,1451.049561 
	C469.210999,1429.744019 443.977051,1408.334961 418.489227,1385.556763 
	C418.847473,1379.579590 419.915253,1375.015381 419.925049,1370.448730 
	C420.041412,1316.261108 419.998779,1262.072998 420.003754,1207.885132 
	C420.004028,1205.226685 419.632202,1202.463501 420.248871,1199.949097 
	C420.616150,1198.451294 422.576416,1197.344116 423.820526,1196.061401 
	C437.048767,1207.016602 450.367249,1217.864990 463.485748,1228.950073 
	C488.244598,1249.871338 512.888367,1270.928833 537.678467,1293.250854 
	C537.184631,1298.793213 536.095154,1303.012573 536.078369,1307.236084 
	C535.939941,1342.180420 536.000122,1377.125488 535.999939,1412.070435 
	C535.999878,1432.371704 536.031677,1452.673218 535.968201,1472.974243 
	C535.957214,1476.499146 536.938293,1480.506714 532.652344,1482.623413 
z"/>
<path fill="#01569F" opacity="1.000000" stroke="none" 
	d="
M533.021606,1483.212036 
	C536.938293,1480.506714 535.957214,1476.499146 535.968201,1472.974243 
	C536.031677,1452.673218 535.999878,1432.371704 535.999939,1412.070435 
	C536.000122,1377.125488 535.939941,1342.180420 536.078369,1307.236084 
	C536.095154,1303.012573 537.184631,1298.793213 538.115234,1293.713867 
	C544.773376,1298.611206 550.897583,1304.602051 557.461121,1310.064697 
	C566.325989,1317.442749 575.719177,1324.187988 584.549194,1331.605225 
	C607.688599,1351.042114 630.645386,1370.696411 653.875610,1391.765381 
	C653.384155,1398.838501 652.103394,1404.408936 652.090698,1409.982422 
	C651.958923,1467.926636 652.031067,1525.871216 652.046631,1583.815796 
	C638.782104,1572.829834 625.425537,1561.952881 612.272522,1550.834961 
	C585.919678,1528.559937 559.678284,1506.153076 533.021606,1483.212036 
z"/>
<path fill="#014B94" opacity="1.000000" stroke="none" 
	d="
M868.004944,1572.182129 
	C867.618225,1577.494507 866.120483,1582.349976 866.105530,1587.209839 
	C865.938293,1641.505615 866.035095,1695.802490 865.925354,1750.098633 
	C865.917542,1753.948364 864.844421,1757.795898 863.487183,1762.144775 
	C848.699585,1750.978271 834.633789,1739.379883 820.696533,1727.629028 
	C797.861328,1708.376465 775.109741,1689.024536 752.203979,1668.243896 
	C752.723389,1662.211060 753.906128,1657.650269 753.916992,1653.086426 
	C754.045776,1598.848999 753.985962,1544.611206 754.024963,1490.373413 
	C754.028320,1485.724976 754.384216,1481.076660 754.576294,1476.428345 
	C772.307312,1491.284668 790.077576,1506.094482 807.759094,1521.009399 
	C827.741882,1537.865967 847.644836,1554.817139 868.004944,1572.182129 
z"/>
<path fill="#01286E" opacity="1.000000" stroke="none" 
	d="
M1632.315186,165.127579 
	C1631.147217,167.178284 1628.839844,168.366592 1628.274658,170.117279 
	C1627.494629,172.534012 1628.003784,175.374924 1628.003540,178.034149 
	C1627.998413,224.911850 1628.030884,271.789612 1627.943604,318.667175 
	C1627.936401,322.582367 1627.133423,326.496033 1626.365234,331.171692 
	C1610.627563,322.197845 1595.692749,311.602478 1579.719604,302.916260 
	C1551.225464,287.421021 1522.104126,273.078918 1492.656982,257.055603 
	C1492.712402,250.311234 1493.887451,244.768585 1493.916138,239.220032 
	C1494.150635,193.782471 1494.171631,148.343826 1494.257446,102.905502 
	C1541.813110,119.738373 1587.846069,139.974472 1632.315186,165.127579 
z"/>
<path fill="#013A81" opacity="1.000000" stroke="none" 
	d="
M1078.753784,708.023560 
	C1077.449707,703.875732 1076.105591,699.347534 1076.094116,694.815857 
	C1075.950439,638.185913 1076.043823,581.555359 1075.917358,524.925354 
	C1075.907227,520.355896 1074.727661,515.789062 1073.960205,510.357269 
	C1114.020508,485.317413 1157.734863,472.140869 1205.128418,468.847961 
	C1206.002319,519.057861 1206.002319,568.142395 1206.002319,617.226929 
	C1185.214844,621.886230 1165.193604,628.443542 1146.670288,639.344116 
	C1129.916748,649.203308 1115.422607,661.626709 1101.906372,675.472290 
	C1092.582031,685.023804 1086.319702,696.545715 1078.753784,708.023560 
z"/>
<path fill="#0160AA" opacity="1.000000" stroke="none" 
	d="
M423.575165,1195.440430 
	C422.576416,1197.344116 420.616150,1198.451294 420.248871,1199.949097 
	C419.632202,1202.463501 420.004028,1205.226685 420.003754,1207.885132 
	C419.998779,1262.072998 420.041412,1316.261108 419.925049,1370.448730 
	C419.915253,1375.015381 418.847473,1379.579590 418.172974,1384.960938 
	C383.702850,1356.705811 349.331024,1327.634644 314.509094,1297.254272 
	C314.705994,1290.383301 315.900330,1284.822876 315.915039,1279.259399 
	C316.056854,1225.705566 315.987274,1172.151245 316.022461,1118.597046 
	C316.025513,1113.948608 316.344543,1109.300415 316.516815,1104.652100 
	C333.772614,1119.043213 351.098267,1133.351807 368.265167,1147.848145 
	C386.697784,1163.413208 404.981293,1179.154907 423.575165,1195.440430 
z"/>
<path fill="#01569F" opacity="1.000000" stroke="none" 
	d="
M631.081787,49.916348 
	C632.001831,98.749268 632.001221,147.390488 632.001465,196.961838 
	C621.081299,198.039902 610.160217,198.303726 599.238953,198.314194 
	C565.441406,198.346603 531.643799,198.282547 496.924194,197.140961 
	C496.002655,147.388885 496.003113,98.751801 496.003601,50.114719 
	C508.913605,49.968163 521.823425,49.715359 534.733704,49.696045 
	C566.542786,49.648457 598.351990,49.708111 631.081787,49.916348 
z"/>
<path fill="#015099" opacity="1.000000" stroke="none" 
	d="
M754.240234,1475.913818 
	C754.384216,1481.076660 754.028320,1485.724976 754.024963,1490.373413 
	C753.985962,1544.611206 754.045776,1598.848999 753.916992,1653.086426 
	C753.906128,1657.650269 752.723389,1662.211060 751.945557,1667.635498 
	C739.876892,1658.614868 727.879333,1648.813110 716.033630,1638.831299 
	C694.833313,1620.966675 673.724426,1602.993408 652.311951,1584.440674 
	C652.031067,1525.871216 651.958923,1467.926636 652.090698,1409.982422 
	C652.103394,1404.408936 653.384155,1398.838501 654.128906,1392.375488 
	C659.584961,1396.073242 664.968201,1400.686279 670.395020,1405.247437 
	C698.225281,1428.638672 726.066650,1452.016602 754.240234,1475.913818 
z"/>
<path fill="#013A81" opacity="1.000000" stroke="none" 
	d="
M1104.923584,198.079132 
	C1104.001709,149.250961 1104.000854,100.609505 1104.001221,51.037819 
	C1118.236938,49.962505 1132.471069,49.718494 1146.705566,49.692886 
	C1176.524536,49.639244 1206.343872,49.700600 1237.081543,50.840923 
	C1238.000854,100.609253 1238.001587,149.251389 1238.002441,197.893524 
	C1226.419922,198.042053 1214.837402,198.304031 1203.254761,198.317474 
	C1170.784668,198.355179 1138.314697,198.290283 1104.923584,198.079132 
z"/>
<path fill="#014B94" opacity="1.000000" stroke="none" 
	d="
M853.180176,1017.777466 
	C854.538574,1023.394043 855.881836,1029.280396 855.903198,1035.171509 
	C856.075806,1082.775146 855.962036,1130.379761 856.071350,1177.983765 
	C856.080200,1181.840698 857.098694,1185.695312 858.416443,1190.063477 
	C843.736389,1196.295654 828.557007,1202.944458 812.775391,1207.513672 
	C789.892761,1214.139160 766.434937,1218.288696 742.435303,1218.382080 
	C739.509644,1218.393433 736.586975,1219.168701 732.838501,1218.520752 
	C732.016174,1168.531616 732.018372,1119.611450 732.020569,1070.691406 
	C746.349365,1068.206055 760.940674,1066.717529 774.952759,1063.029053 
	C804.786316,1055.175781 830.406860,1039.465942 853.180176,1017.777466 
z"/>
<path fill="#012E75" opacity="1.000000" stroke="none" 
	d="
M1493.664795,102.557846 
	C1494.171631,148.343826 1494.150635,193.782471 1493.916138,239.220032 
	C1493.887451,244.768585 1492.712402,250.311234 1492.042725,256.669006 
	C1468.130493,248.644592 1444.432373,239.246201 1420.296143,231.154846 
	C1402.125122,225.063217 1383.392212,220.647339 1364.435181,214.086365 
	C1364.640625,206.471466 1365.878052,200.258621 1365.910034,194.039597 
	C1366.126343,151.876465 1366.088257,109.712013 1366.132446,67.547989 
	C1383.510254,71.449646 1401.085205,74.643623 1418.219116,79.420357 
	C1443.335815,86.422638 1468.136597,94.557793 1493.664795,102.557846 
z"/>
<path fill="#01347B" opacity="1.000000" stroke="none" 
	d="
M1206.816162,617.357605 
	C1206.002319,568.142395 1206.002319,519.057861 1206.003662,469.043457 
	C1214.535278,467.302643 1223.059204,465.877411 1231.596924,465.789062 
	C1265.277588,465.440369 1298.442749,469.299805 1331.372070,479.701965 
	C1331.999756,528.932007 1332.046875,577.745789 1331.908447,626.559082 
	C1331.897705,630.340637 1330.584839,634.118591 1329.032349,638.361206 
	C1311.348267,630.236755 1294.054321,622.836121 1275.445190,618.975037 
	C1252.939453,614.305481 1230.342651,613.076416 1206.816162,617.357605 
z"/>
<path fill="#01347B" opacity="1.000000" stroke="none" 
	d="
M1365.572510,67.016006 
	C1366.088257,109.712013 1366.126343,151.876465 1365.910034,194.039597 
	C1365.878052,200.258621 1364.640625,206.471466 1363.899292,213.560852 
	C1350.183472,211.704498 1336.541382,208.911682 1322.872437,206.257660 
	C1295.455688,200.934250 1267.935303,196.611694 1238.923096,198.081299 
	C1238.001587,149.251389 1238.000854,100.609253 1238.001221,51.036804 
	C1248.498047,49.847420 1258.961548,49.820827 1269.049316,53.451347 
	C1270.250854,53.883766 1271.631226,53.993935 1272.923950,53.972534 
	C1297.883789,53.559200 1322.070190,59.232327 1346.461670,63.282055 
	C1352.651855,64.309822 1358.829224,65.414612 1365.572510,67.016006 
z"/>
<path fill="#0160AA" opacity="1.000000" stroke="none" 
	d="
M254.927185,198.068909 
	C254.004440,149.249191 254.003586,100.610428 254.004013,51.041851 
	C271.877533,49.967888 289.749542,49.745178 307.622070,49.699005 
	C331.136017,49.638264 354.650330,49.716373 379.084045,50.855598 
	C380.004486,100.611786 380.005371,149.247147 380.006256,197.882538 
	C365.447083,198.030823 350.888062,198.278732 336.328674,198.305771 
	C309.502258,198.355591 282.675629,198.275681 254.927185,198.068909 
z"/>
<path fill="#005BA4" opacity="1.000000" stroke="none" 
	d="
M380.927734,198.065277 
	C380.005371,149.247147 380.004486,100.611786 380.004913,51.046959 
	C401.508606,49.970562 423.010742,49.773560 444.513336,49.692886 
	C461.062408,49.630798 477.612061,49.715008 495.082520,49.924438 
	C496.003113,98.751801 496.002655,147.388885 496.002869,196.955627 
	C477.149841,198.031082 458.296326,198.244492 439.442291,198.303802 
	C420.244843,198.364197 401.046906,198.272903 380.927734,198.065277 
z"/>
<path fill="#01347B" opacity="1.000000" stroke="none" 
	d="
M1335.100098,792.574768 
	C1336.017700,841.665466 1336.015381,890.559998 1336.016846,940.341858 
	C1315.849976,941.376465 1295.679565,941.576477 1275.508545,941.654297 
	C1259.626099,941.715515 1243.743164,941.626160 1226.938232,940.528320 
	C1226.018799,890.559570 1226.021240,841.666321 1226.023804,792.772949 
	C1248.841187,792.623840 1271.658447,792.438904 1294.475952,792.339294 
	C1307.710449,792.281555 1320.945435,792.361023 1335.100098,792.574768 
z"/>
<path fill="#0165AF" opacity="1.000000" stroke="none" 
	d="
M316.200439,1104.116089 
	C316.344543,1109.300415 316.025513,1113.948608 316.022461,1118.597046 
	C315.987274,1172.151245 316.056854,1225.705566 315.915039,1279.259399 
	C315.900330,1284.822876 314.705994,1290.383301 314.034576,1296.762695 
	C285.439301,1273.492310 256.868439,1249.404053 227.934570,1224.738403 
	C229.026840,1222.676270 231.224518,1221.416138 231.757568,1219.652832 
	C232.494980,1217.213501 231.996201,1214.395386 231.997498,1211.739502 
	C232.026276,1152.971924 232.051025,1094.204224 232.130173,1034.466309 
	C247.464584,1046.156372 262.792053,1058.760986 278.011658,1071.494507 
	C290.701385,1082.111328 303.264709,1092.879150 316.200439,1104.116089 
z"/>
<path fill="#015099" opacity="1.000000" stroke="none" 
	d="
M731.099731,1070.533325 
	C732.018372,1119.611450 732.016174,1168.531616 732.018799,1218.338257 
	C712.866943,1217.996460 693.574402,1217.779053 674.595337,1215.228394 
	C658.632324,1213.083130 643.034302,1208.222778 626.644165,1204.104248 
	C626.009216,1153.914307 625.961182,1104.184082 626.097229,1054.454468 
	C626.106445,1051.103760 627.505493,1047.756836 629.035645,1044.209717 
	C643.683411,1049.987305 657.289673,1056.705078 671.489014,1061.755859 
	C690.356873,1068.467285 710.169373,1070.519775 731.099731,1070.533325 
z"/>
<path fill="#013A81" opacity="1.000000" stroke="none" 
	d="
M1225.103760,792.575745 
	C1226.021240,841.666321 1226.018799,890.559570 1226.020264,940.339966 
	C1197.713257,941.309875 1169.402100,941.397644 1141.090942,941.440247 
	C1140.518921,941.441101 1139.946167,940.915161 1138.855347,940.381165 
	C1138.855347,891.755859 1138.855347,842.874634 1138.855347,792.507935 
	C1152.846436,792.147522 1167.024536,792.367798 1181.189331,792.334534 
	C1195.520630,792.300903 1209.852295,792.360046 1225.103760,792.575745 
z"/>
<path fill="#0165AF" opacity="1.000000" stroke="none" 
	d="
M313.080322,465.919037 
	C314.001282,514.748779 314.000916,563.390930 314.001129,612.963257 
	C285.282867,614.015015 256.564026,614.136536 226.923431,614.074463 
	C226.001343,565.250305 226.001007,516.609741 226.001160,467.039185 
	C254.720779,465.983276 283.439880,465.857361 313.080322,465.919037 
z"/>
</svg>