<svg xmlns="http://www.w3.org/2000/svg" id="Layer_2" viewBox="0 0 80.01 77.76"><defs><style>.cls-1{fill:none;stroke:#373a44;stroke-linecap:round;stroke-miterlimit:10;stroke-width:2px;}.cls-2{fill:#f4c948;}.cls-2,.cls-3,.cls-4{stroke-width:0px;}.cls-3{fill:#e37847;}.cls-4{fill:#86c5d0;}</style></defs><g id="Layer_1-2"><rect class="cls-1" x="43.61" y="47.78" width="35.4" height="28.99"></rect><path class="cls-1" d="M43.59,66.35c-2.51.66-5.15,1.01-7.87,1.01-17.1,0-30.96-13.86-30.96-30.96"></path><path class="cls-1" d="M35.72,5.45c17.1,0,30.96,13.86,30.96,30.96,0,4.01-.76,7.85-2.15,11.37"></path><rect class="cls-4" x="30.26" y="1" width="8" height="8" rx="2.14" ry="2.14"></rect><rect class="cls-4" x="1" y="29.95" width="8" height="8" rx="2.14" ry="2.14"></rect><rect class="cls-1" x="30.26" y="1" width="8" height="8" rx="2.14" ry="2.14"></rect><rect class="cls-1" x="1" y="29.95" width="8" height="8" rx="2.14" ry="2.14"></rect><path class="cls-2" d="M35.38,17.83c-11.3,0-20.47,9.16-20.47,20.47s9.16,20.47,20.47,20.47,20.47-9.16,20.47-20.47h-20.47v-20.47Z"></path><path class="cls-3" d="M53.52,47.78h-9.91v9.26c4.26-1.87,7.76-5.15,9.91-9.26Z"></path><path class="cls-4" d="M43.61,16.06v14.27h14.27c0-7.88-6.39-14.27-14.27-14.27Z"></path><path class="cls-1" d="M35.38,17.83c-11.3,0-20.47,9.16-20.47,20.47s9.16,20.47,20.47,20.47,20.47-9.16,20.47-20.47h-20.47v-20.47Z"></path><path class="cls-1" d="M43.61,16.06v14.27h14.27c0-7.88-6.39-14.27-14.27-14.27Z"></path><rect class="cls-1" x="43.61" y="47.78" width="35.4" height="28.99"></rect><line class="cls-1" x1="49.12" y1="69.38" x2="74.48" y2="69.38"></line><rect class="cls-4" x="52.88" y="54.02" width="5.92" height="15.36"></rect><rect class="cls-4" x="58.84" y="59.9" width="5.92" height="9.47"></rect><rect class="cls-4" x="64.8" y="63.46" width="5.92" height="5.92"></rect><rect class="cls-1" x="52.88" y="54.02" width="5.92" height="15.36"></rect><rect class="cls-1" x="58.84" y="59.9" width="5.92" height="9.47"></rect><rect class="cls-1" x="64.8" y="63.46" width="5.92" height="5.92"></rect></g></svg>