<svg xmlns="http://www.w3.org/2000/svg" id="Layer_2" viewBox="0 0 114.83 122.81"><defs><style>.cls-1{fill:none;stroke:#383a43;stroke-miterlimit:10;stroke-width:3px;}.cls-2{fill:#da7e51;}.cls-2,.cls-3,.cls-4,.cls-5{stroke-width:0px;}.cls-3{fill:#86c5d0;}.cls-4{fill:#fff;}.cls-5{fill:#f0ca49;}</style></defs><g id="Layer_1-2"><circle class="cls-3" cx="58.76" cy="57.26" r="47.54"></circle><polygon class="cls-4" points="46.09 16.29 46.09 7.84 7.72 7.84 7.72 19.19 19.68 36.32 20.92 37.72 28.96 37.72 28.96 46.75 29.36 47.2 44.03 47.2 38.56 40.71 30.85 38.32 30.85 28.41 39.66 28.41 47.19 35.94 47.19 25.29 58.76 13.72 58.76 3.62 46.09 16.29"></polygon><polyline class="cls-4" points="47.19 57.42 42.69 61.91 57.29 76.51 51.41 110.84 54.53 121.31 62.25 121.31 58.94 113.23 65.83 95.7 91.25 70.27 91.25 58.75 80.38 58.75 68.3 46.68 55.54 46.68 50.04 52.18 49.58 51.73"></polyline><path class="cls-1" d="M28.53,55.62c-14.33,9.45-22.82,18.86-20.41,23.83,3.35,6.91,26.54,2.57,51.79-9.68,25.25-12.25,43.01-27.79,39.65-34.69-2.71-5.58-18.36-3.82-37.59,3.52"></path><rect class="cls-2" x="81.95" y="9.99" width="31.37" height="31.37"></rect><rect class="cls-5" x="1.5" y="69.05" width="31.37" height="31.37"></rect><polyline class="cls-1" points="47.19 57.42 42.69 61.91 57.29 76.51 51.41 110.84 54.53 121.31 62.25 121.31 58.94 113.23 65.83 95.7 91.25 70.27 91.25 58.75 80.38 58.75 68.3 46.68 55.54 46.68 50.04 52.18 38.56 40.71 30.85 38.32 30.85 28.41 39.66 28.41 47.19 35.94 47.19 25.29 58.76 13.72 58.76 3.62 46.09 16.29 46.09 7.84 7.72 7.84 7.72 19.19 19.68 36.32"></polyline><line class="cls-1" x1="22.07" y1="29.24" x2="25.16" y2="34.32"></line><line class="cls-1" x1="29.36" y1="47.2" x2="45.05" y2="47.2"></line><rect class="cls-1" x="81.95" y="9.99" width="31.37" height="31.37"></rect><rect class="cls-1" x="1.5" y="69.05" width="31.37" height="31.37"></rect><path class="cls-4" d="M19.35,85.34c1.79-.82,3.03-2.62,3.03-4.71,0-2.87-2.32-5.19-5.19-5.19s-5.19,2.32-5.19,5.19c0,2.09,1.24,3.89,3.03,4.71-3.35.94-5.81,4.01-5.81,7.66v1.03h15.94v-1.03c0-3.65-2.46-6.72-5.81-7.66Z"></path><path class="cls-4" d="M100.38,24.22c1.79-.82,3.03-2.62,3.03-4.71,0-2.87-2.32-5.19-5.19-5.19s-5.19,2.32-5.19,5.19c0,2.09,1.24,3.89,3.03,4.71-3.35.94-5.81,4.01-5.81,7.66v1.03h15.94v-1.03c0-3.65-2.46-6.72-5.81-7.66Z"></path><path class="cls-1" d="M19.35,85.34c1.79-.82,3.03-2.62,3.03-4.71,0-2.87-2.32-5.19-5.19-5.19s-5.19,2.32-5.19,5.19c0,2.09,1.24,3.89,3.03,4.71-3.35.94-5.81,4.01-5.81,7.66v1.03h15.94v-1.03c0-3.65-2.46-6.72-5.81-7.66Z"></path><path class="cls-1" d="M100.38,24.22c1.79-.82,3.03-2.62,3.03-4.71,0-2.87-2.32-5.19-5.19-5.19s-5.19,2.32-5.19,5.19c0,2.09,1.24,3.89,3.03,4.71-3.35.94-5.81,4.01-5.81,7.66v1.03h15.94v-1.03c0-3.65-2.46-6.72-5.81-7.66Z"></path></g></svg>