<svg xmlns="http://www.w3.org/2000/svg" id="Layer_2" viewBox="0 0 121.62 121.76"><defs><style>.cls-1{fill:none;stroke:#383a43;stroke-miterlimit:10;stroke-width:3px;}.cls-2{fill:#da7e51;}.cls-2,.cls-3,.cls-4,.cls-5{stroke-width:0px;}.cls-3{fill:#86c5d0;}.cls-4{fill:#fff;}.cls-5{fill:#f0ca49;}</style></defs><g id="Layer_1-2"><rect class="cls-5" x="81.2" y="1.5" width="38.93" height="67.33" rx="3.28" ry="3.28"></rect><rect class="cls-3" x="12.37" y="48.64" width="79.19" height="47.88" rx="3.25" ry="3.25"></rect><path class="cls-2" d="M99.17,38.68h-17.98v26.87c0,1.81,1.47,3.28,3.28,3.28h17.95v-26.9c0-1.8-1.46-3.25-3.25-3.25Z"></path><rect class="cls-1" x="1.5" y="38.68" width="100.93" height="67.8" rx="3.25" ry="3.25"></rect><rect class="cls-1" x="12.37" y="48.64" width="79.19" height="47.88" rx="3.25" ry="3.25"></rect><line class="cls-1" x1="24.81" y1="120.26" x2="81.85" y2="120.26"></line><line class="cls-1" x1="51.96" y1="106.48" x2="51.96" y2="115.67"></line><rect class="cls-1" x="81.2" y="1.5" width="38.93" height="67.33" rx="3.28" ry="3.28"></rect><rect class="cls-1" x="81.2" y="1.5" width="38.93" height="67.33" rx="3.28" ry="3.28"></rect><rect class="cls-4" x="91.56" y="1.5" width="18.99" height="8.8"></rect><rect class="cls-1" x="91.56" y="1.5" width="18.99" height="8.8"></rect><polyline class="cls-1" points="40.62 64.09 29.64 72.58 40.62 81.06"></polyline><polyline class="cls-1" points="63.31 81.06 74.29 72.58 63.31 64.09"></polyline><line class="cls-1" x1="46.9" y1="87.92" x2="57.03" y2="57.23"></line><rect class="cls-1" x="24.81" y="114.83" width="57.04" height="5.43"></rect></g></svg>