<svg xmlns="http://www.w3.org/2000/svg" id="Layer_2" viewBox="0 0 111.55 124.73"><defs><style>.cls-1{fill:none;stroke:#383a43;stroke-miterlimit:10;stroke-width:3px;}.cls-2{fill:#da7e51;}.cls-2,.cls-3,.cls-4{stroke-width:0px;}.cls-3{fill:#86c5d0;}.cls-4{fill:#f0ca49;}</style></defs><g id="Layer_1-2"><path class="cls-4" d="M73.16,108.21h17.95v-12.06h-17.95v12.06ZM77.41,100.68h8.85v3h-8.85v-3Z"></path><path class="cls-3" d="M17.38,93.05c-1.92-1.79-3.06-4.32-3.06-7.02,0-5.29,4.3-9.6,9.6-9.6s9.6,4.3,9.6,9.6c0,2.7-1.15,5.23-3.06,7.02,4.31,2.3,7.18,6.76,7.38,11.74,4.29-3.83,7-9.39,7-15.57,0-11.53-9.38-20.92-20.92-20.92S3,77.69,3,89.22c0,6.19,2.72,11.74,7,15.57.2-4.98,3.07-9.45,7.38-11.74Z"></path><path class="cls-4" d="M34.85,106.96v-1.61c0-4.87-3.28-9.19-7.97-10.51l-2.96-.83-2.96.83c-4.69,1.32-7.97,5.64-7.97,10.51v1.61h-.1c3.21,2,6.98,3.18,11.03,3.18s7.82-1.18,11.03-3.18h-.1Z"></path><path class="cls-4" d="M6.84,59.79h59.01v-12.06H6.84v12.06ZM26.61,52.26h31.39v3h-31.39v-3ZM11.1,52.26h8.85v3h-8.85v-3Z"></path><path class="cls-4" d="M23.92,93.28l2.74-1.26c2.34-1.07,3.85-3.43,3.85-5.99,0-3.64-2.96-6.6-6.6-6.6s-6.6,2.96-6.6,6.6c0,2.57,1.51,4.92,3.85,5.99l2.74,1.26Z"></path><path class="cls-2" d="M101.93,43.12h0c-1.2-1.2-3.15-1.2-4.35,0l-2.31,2.31h0s-2.4,2.46-2.4,2.46l9.25,9.25,2.38-2.43,1.07,1.05-1.06-1.06,2.33-2.33c1.2-1.2,1.2-3.15,0-4.35l-4.9-4.9Z"></path><polygon class="cls-4" points="90.77 50.04 70.9 70.37 78.63 72.62 80.28 79.5 100.02 59.29 90.77 50.04"></polygon><circle class="cls-4" cx="30.3" cy="16.85" r=".41"></circle><circle class="cls-4" cx="21.16" cy="16.85" r=".41"></circle><rect class="cls-3" x="13.14" y="7.15" width="54.23" height="18.91"></rect><polyline class="cls-1" points="13.14 37.72 13.14 7.15 66.14 7.15"></polyline><polyline class="cls-1" points="100.41 75.46 100.41 123.23 14.14 123.23 14.14 117.86"></polyline><line class="cls-1" x1="13.14" y1="26.07" x2="59.87" y2="26.07"></line><g id="_8"><line class="cls-1" x1="64.19" y1="86.38" x2="68.08" y2="71.11"></line><path class="cls-1" d="M102.99,42.06c-1.79-1.79-4.69-1.79-6.47,0l-2.33,2.33"></path></g><polyline class="cls-1" points="68.08 71.11 77.38 73.82 79.46 82.49"></polyline><line class="cls-1" x1="79.46" y1="82.49" x2="64.19" y2="86.38"></line><line class="cls-1" x1="90.7" y1="47.85" x2="101.98" y2="59.13"></line><path class="cls-1" d="M105.57,55.76l2.33-2.33c1.79-1.79,1.79-4.69,0-6.47l-4.9-4.9"></path><line class="cls-1" x1="94.2" y1="44.39" x2="68.08" y2="71.11"></line><line class="cls-1" x1="105.57" y1="55.76" x2="79.46" y2="82.49"></line><rect class="cls-1" x="71.66" y="94.65" width="20.95" height="15.06"></rect><line class="cls-1" x1="77.42" y1="102.18" x2="86.26" y2="102.18"></line><rect class="cls-1" x="67.37" y="1.5" width="42.68" height="32.88"></rect><line class="cls-1" x1="76.64" y1="17.94" x2="100.66" y2="17.94"></line><path class="cls-1" d="M36.35,106.96v-1.61c0-5.7-3.84-10.48-9.06-11.96,2.79-1.28,4.73-4.09,4.73-7.36,0-4.47-3.63-8.1-8.1-8.1s-8.1,3.62-8.1,8.1c0,3.27,1.94,6.08,4.73,7.36-5.23,1.47-9.06,6.26-9.06,11.96v1.61"></path><circle class="cls-1" cx="23.92" cy="89.22" r="22.42"></circle><rect class="cls-1" x="5.34" y="46.23" width="62.01" height="15.06"></rect><line class="cls-1" x1="11.1" y1="53.76" x2="19.95" y2="53.76"></line><line class="cls-1" x1="26.61" y1="53.76" x2="58.01" y2="53.76"></line><circle class="cls-1" cx="21.16" cy="16.85" r="1.09"></circle><circle class="cls-1" cx="30.3" cy="16.85" r="1.09"></circle></g></svg>