<svg xmlns="http://www.w3.org/2000/svg" id="Layer_2" viewBox="0 0 65.87 65.87"><defs><style>.cls-1{fill:none;stroke:#373a44;stroke-linecap:round;stroke-miterlimit:10;stroke-width:2px;}.cls-2{fill:#f4c948;}.cls-2,.cls-3,.cls-4,.cls-5{stroke-width:0px;}.cls-3{fill:#74c3ce;}.cls-4{fill:#e37847;}.cls-5{fill:#c0e1e8;}</style></defs><g id="Layer_1-2"><path class="cls-5" d="M54.79,48.04c2.03-3.06,3.44-6.56,4.08-10.33"></path><path class="cls-5" d="M37.71,59.56c3.86-.78,7.41-2.38,10.48-4.62"></path><path class="cls-5" d="M17.21,55.41c3.22,2.2,6.93,3.72,10.95,4.35"></path><path class="cls-5" d="M5.87,37.71c.68,4.04,2.26,7.78,4.54,11"></path><path class="cls-5" d="M10.64,17.4c-2.29,3.14-3.92,6.8-4.67,10.76"></path><path class="cls-5" d="M28.16,6.66c-3.88.61-7.47,2.05-10.61,4.13"></path><path class="cls-5" d="M47.86,11.25c-2.99-2.11-6.43-3.64-10.15-4.39"></path><path class="cls-5" d="M58.77,28.16c-.7-3.69-2.16-7.12-4.2-10.1"></path><rect class="cls-3" x="28.16" y="55.32" width="9.55" height="9.55" rx="3.55" ry="3.55"></rect><rect class="cls-3" x="28.16" y="1" width="9.55" height="9.55" rx="3.55" ry="3.55"></rect><rect class="cls-3" x="1" y="28.16" width="9.55" height="9.55" rx="3.55" ry="3.55" transform="translate(38.71 27.16) rotate(90)"></rect><rect class="cls-5" x="55.32" y="28.16" width="9.55" height="9.55" rx="3.55" ry="3.55" transform="translate(93.02 -27.16) rotate(90)"></rect><rect class="cls-4" x="8.95" y="8.95" width="9.55" height="9.55" rx="3.55" ry="3.55" transform="translate(33.14 13.73) rotate(135)"></rect><rect class="cls-4" x="47.36" y="47.36" width="9.55" height="9.55" rx="3.55" ry="3.55" transform="translate(125.87 52.14) rotate(135)"></rect><rect class="cls-1" x="47.36" y="47.36" width="9.55" height="9.55" rx="3.55" ry="3.55" transform="translate(125.87 52.14) rotate(135)"></rect><rect class="cls-4" x="47.36" y="8.95" width="9.55" height="9.55" rx="3.55" ry="3.55" transform="translate(79.29 60.3) rotate(-135)"></rect><rect class="cls-4" x="8.95" y="47.36" width="9.55" height="9.55" rx="3.55" ry="3.55" transform="translate(-13.43 98.71) rotate(-135)"></rect><rect class="cls-1" x="8.95" y="47.36" width="9.55" height="9.55" rx="3.55" ry="3.55" transform="translate(-13.43 98.71) rotate(-135)"></rect><path class="cls-2" d="M30.93,46.13c-.12,0-.25-.02-.39-.06-.92-.28-1.84-.57-2.77-.82-.32-.09-.86-.36-.84-1.16.01-.43.02-.86.02-1.28l.02-1.14c-.47-.36-.92-.73-1.36-1.11-.64.15-1.28.29-1.91.43l-1.32.3-2.2-4.05,1.1-1.11c.42-.41.84-.82,1.26-1.24-.02-.26-.05-.52-.08-.78-.03-.32-.07-.63-.09-.95l-2.1-1.31c-.64-.4-.58-.96-.48-1.26.3-.95.58-1.91.86-2.86.2-.7.73-.79,1.07-.78.51.02,1.02.02,1.53.03l.96.02c.36-.47.72-.92,1.1-1.36-.15-.63-.29-1.27-.43-1.91l-.29-1.33,4.09-2.19.92.94c.46.47.92.94,1.38,1.42.59-.08,1.17-.14,1.74-.18.21-.34.43-.68.64-1.02.24-.37.47-.74.7-1.11.28-.46.72-.63,1.24-.47.95.29,1.91.58,2.87.86.5.15.78.53.77,1.05-.02.52-.02,1.03-.03,1.55l-.02.98c.47.36.91.73,1.35,1.1.65-.15,1.31-.3,1.97-.44l1.22-.25.31.46,1.95,3.58-.92.9c-.42.42-.85.85-1.3,1.25-.17.16-.17.16-.13.32.12.5.13.98.15,1.46v.12s.8.5.8.5c.44.28.88.56,1.33.83.44.27.61.71.46,1.21-.3.96-.59,1.93-.86,2.9-.15.51-.55.79-1.08.77-.48-.01-.95-.02-1.43-.03l-1.06-.02c-.36.47-.72.91-1.1,1.35.14.59.27,1.18.4,1.78l.29,1.41-.47.33-3.59,1.92-.87-.88c-.4-.4-.81-.81-1.18-1.24-.24-.27-.3-.26-.49-.2-.46.13-.93.14-1.34.15h-.16s-.5.8-.5.8c-.27.43-.54.85-.81,1.28-.14.22-.41.54-.9.54ZM22.55,34.98h0s0,0,0,0ZM22.64,34.79h0s0,0,0,0ZM32.93,29.77c-1.41,0-2.62.98-3,2.14-.28.84-.21,1.73.2,2.5.4.76,1.09,1.33,1.89,1.57,1.69.5,3.45-.45,3.94-2.11h0c.51-1.71-.42-3.45-2.12-3.96-.31-.09-.61-.14-.91-.14Z"></path><path class="cls-1" d="M54.79,48.04c2.03-3.06,3.44-6.56,4.08-10.33"></path><path class="cls-1" d="M37.71,59.56c3.86-.78,7.41-2.38,10.48-4.62"></path><path class="cls-1" d="M17.21,55.41c3.22,2.2,6.93,3.72,10.95,4.35"></path><path class="cls-1" d="M5.87,37.71c.68,4.04,2.26,7.78,4.54,11"></path><path class="cls-1" d="M10.64,17.4c-2.29,3.14-3.92,6.8-4.67,10.76"></path><path class="cls-1" d="M28.16,6.66c-3.88.61-7.47,2.05-10.61,4.13"></path><path class="cls-1" d="M47.86,11.25c-2.99-2.11-6.43-3.64-10.15-4.39"></path><path class="cls-1" d="M58.77,28.16c-.7-3.69-2.16-7.12-4.2-10.1"></path><rect class="cls-1" x="28.16" y="55.32" width="9.55" height="9.55" rx="3.55" ry="3.55"></rect><rect class="cls-1" x="28.16" y="1" width="9.55" height="9.55" rx="3.55" ry="3.55"></rect><rect class="cls-1" x="1" y="28.16" width="9.55" height="9.55" rx="3.55" ry="3.55" transform="translate(38.71 27.16) rotate(90)"></rect><rect class="cls-3" x="55.32" y="28.16" width="9.55" height="9.55" rx="3.55" ry="3.55" transform="translate(93.02 -27.16) rotate(90)"></rect><rect class="cls-1" x="55.32" y="28.16" width="9.55" height="9.55" rx="3.55" ry="3.55" transform="translate(93.02 -27.16) rotate(90)"></rect><rect class="cls-1" x="8.95" y="8.95" width="9.55" height="9.55" rx="3.55" ry="3.55" transform="translate(33.14 13.73) rotate(135)"></rect><rect class="cls-1" x="47.36" y="8.95" width="9.55" height="9.55" rx="3.55" ry="3.55" transform="translate(79.29 60.3) rotate(-135)"></rect><path class="cls-1" d="M30.93,46.13c-.12,0-.25-.02-.39-.06-.92-.28-1.84-.57-2.77-.82-.32-.09-.86-.36-.84-1.16.01-.43.02-.86.02-1.28l.02-1.14c-.47-.36-.92-.73-1.36-1.11-.64.15-1.28.29-1.91.43l-1.32.3-2.2-4.05,1.1-1.11c.42-.41.84-.82,1.26-1.24-.02-.26-.05-.52-.08-.78-.03-.32-.07-.63-.09-.95l-2.1-1.31c-.64-.4-.58-.96-.48-1.26.3-.95.58-1.91.86-2.86.2-.7.73-.79,1.07-.78.51.02,1.02.02,1.53.03l.96.02c.36-.47.72-.92,1.1-1.36-.15-.63-.29-1.27-.43-1.91l-.29-1.33,4.09-2.19.92.94c.46.47.92.94,1.38,1.42.59-.08,1.17-.14,1.74-.18.21-.34.43-.68.64-1.02.24-.37.47-.74.7-1.11.28-.46.72-.63,1.24-.47.95.29,1.91.58,2.87.86.5.15.78.53.77,1.05-.02.52-.02,1.03-.03,1.55l-.02.98c.47.36.91.73,1.35,1.1.65-.15,1.31-.3,1.97-.44l1.22-.25.31.46,1.95,3.58-.92.9c-.42.42-.85.85-1.3,1.25-.17.16-.17.16-.13.32.12.5.13.98.15,1.46v.12s.8.5.8.5c.44.28.88.56,1.33.83.44.27.61.71.46,1.21-.3.96-.59,1.93-.86,2.9-.15.51-.55.79-1.08.77-.48-.01-.95-.02-1.43-.03l-1.06-.02c-.36.47-.72.91-1.1,1.35.14.59.27,1.18.4,1.78l.29,1.41-.47.33-3.59,1.92-.87-.88c-.4-.4-.81-.81-1.18-1.24-.24-.27-.3-.26-.49-.2-.46.13-.93.14-1.34.15h-.16s-.5.8-.5.8c-.27.43-.54.85-.81,1.28-.14.22-.41.54-.9.54ZM22.55,34.98h0s0,0,0,0ZM32.93,29.77c-1.41,0-2.62.98-3,2.14-.28.84-.21,1.73.2,2.5.4.76,1.09,1.33,1.89,1.57,1.69.5,3.45-.45,3.94-2.11h0c.51-1.71-.42-3.45-2.12-3.96-.31-.09-.61-.14-.91-.14Z"></path></g></svg>