<svg xmlns="http://www.w3.org/2000/svg" id="Layer_2" viewBox="0 0 115.49 132.96"><defs><style>.cls-1{fill:#3b404a;}.cls-1,.cls-2,.cls-3,.cls-4{stroke-width:0px;}.cls-2{fill:#da7e51;}.cls-3{fill:#86c5d0;}.cls-4{fill:#f0ca49;}</style></defs><g id="Layer_1-2"><path class="cls-4" d="M65.06,115.39c-26.97,0-48.9-21.94-48.9-48.91s21.94-48.9,48.9-48.9c.27,0,.53.05.76.15.23-.1.49-.15.76-.15V3.69c0-2.1-1.75-3.8-3.85-3.68C27.75,2,0,31,0,66.48s27.75,64.48,62.74,66.48c2.1.12,3.85-1.59,3.85-3.68v-13.89c-.27,0-.53-.05-.76-.15-.23.1-.49.15-.76.15Z"></path><circle class="cls-4" cx="65.69" cy="34.13" r="4.91"></circle><path class="cls-3" d="M86.48,50.21l-14.45-9.83c-.96.97-2.13,1.71-3.45,2.17v15.26c1.45.33,2.76,1.02,3.84,1.96l14.06-9.56Z"></path><path class="cls-3" d="M86.48,82.1l-13.65-9.28c-1.15,1.14-2.62,1.96-4.25,2.33v14.34c1.38.48,2.61,1.28,3.59,2.33l14.3-9.72Z"></path><path class="cls-3" d="M74.6,34.13c0,1-.17,1.95-.47,2.84l15.91,10.82,7.87-5.35c-1-1.44-1.6-3.19-1.6-5.08,0-1.34.3-2.6.83-3.74-7.57-7.04-17.55-11.51-28.56-12v4.09c3.5,1.2,6.02,4.52,6.02,8.42Z"></path><path class="cls-3" d="M109.93,66.16l-19.89-13.53-15.25,10.37c.46,1.07.71,2.25.71,3.48,0,1.04-.19,2.03-.52,2.96l15.06,10.24,19.89-13.53Z"></path><circle class="cls-2" cx="66.59" cy="66.48" r="4.91"></circle><path class="cls-3" d="M111.29,62.24c-.54-5.74-2.17-11.17-4.68-16.09-.45.07-.91.12-1.39.12-1.54,0-2.98-.39-4.25-1.08l-7.38,5.02,17.69,12.03Z"></path><circle class="cls-2" cx="105.22" cy="37.36" r="4.91"></circle><path class="cls-2" d="M106.22,87.15c-2.71,0-4.91,2.2-4.91,4.91s2.2,4.91,4.91,4.91,4.91-2.2,4.91-4.91-2.2-4.91-4.91-4.91Z"></path><path class="cls-4" d="M70.6,97.92c0-2.71-2.2-4.91-4.91-4.91s-4.91,2.2-4.91,4.91,2.2,4.91,4.91,4.91,4.91-2.2,4.91-4.91Z"></path><path class="cls-3" d="M97.64,89.69l-7.6-5.17-15.83,10.77c.26.83.4,1.72.4,2.63,0,3.9-2.52,7.22-6.02,8.42v5c11.99-.53,22.77-5.78,30.52-13.94-1.13-1.49-1.8-3.34-1.8-5.35,0-.82.12-1.61.33-2.37Z"></path><path class="cls-3" d="M99.56,86.16c1.63-1.84,4.01-3.01,6.66-3.01.68,0,1.33.08,1.97.23,1.7-4.17,2.78-8.65,3.15-13.33l-17.74,12.06,5.96,4.05Z"></path><path class="cls-1" d="M115.48,66.03c-.07-7.67-1.92-14.93-5.15-21.38,2.3-1.61,3.8-4.28,3.8-7.29,0-4.91-4-8.91-8.91-8.91-2.13,0-4.08.75-5.61,2-8.71-7.99-20.3-12.87-33.02-12.87-.27,0-.53.05-.76.15-.23-.1-.49-.15-.76-.15-26.97,0-48.9,21.94-48.9,48.9s21.94,48.91,48.9,48.91c.27,0,.53-.05.76-.15.23.1.49.15.76.15,14.01,0,26.65-5.93,35.58-15.4,1.22.63,2.59.99,4.06.99,4.91,0,8.91-4,8.91-8.91,0-2.81-1.31-5.31-3.34-6.94,2.38-5.75,3.7-12.04,3.7-18.63,0-.08,0-.17,0-.25,0-.03,0-.05,0-.08,0-.04,0-.09-.01-.13ZM105.22,32.45c2.71,0,4.91,2.2,4.91,4.91s-2.2,4.91-4.91,4.91-4.91-2.2-4.91-4.91,2.2-4.91,4.91-4.91ZM100.97,45.19c1.26.69,2.71,1.08,4.25,1.08.47,0,.93-.05,1.39-.12,2.51,4.91,4.14,10.34,4.68,16.09l-17.69-12.03,7.38-5.02ZM57.91,68.48c.76,3.31,3.37,5.91,6.68,6.68v11.21c-7.71-.03-15.06.21-22.17.7-1.77-6.03-2.64-12.21-2.6-18.58h18.1ZM39.96,64.48c.4-6.3,1.68-12.78,3.82-19.45,7.13-.47,14.03-.74,20.81-.81v13.59c-3.31.76-5.91,3.37-6.68,6.68h-17.95ZM61.67,66.48c0-2.71,2.2-4.91,4.91-4.91s4.91,2.2,4.91,4.91-2.2,4.91-4.91,4.91-4.91-2.2-4.91-4.91ZM68.59,57.81v-15.26c1.31-.45,2.49-1.2,3.45-2.17l14.45,9.83-14.06,9.56c-1.08-.94-2.39-1.63-3.84-1.96ZM68.59,75.16c1.63-.38,3.09-1.2,4.25-2.33l13.65,9.28-14.3,9.72c-.98-1.04-2.21-1.85-3.59-2.33v-14.34ZM74.98,69.45c.33-.93.52-1.92.52-2.96,0-1.24-.25-2.41-.71-3.48l15.25-10.37,19.89,13.53-19.89,13.53-15.06-10.24ZM68.59,21.62c11.01.48,20.99,4.96,28.56,12-.53,1.14-.83,2.4-.83,3.74,0,1.89.59,3.64,1.6,5.08l-7.87,5.35-15.91-10.82c.3-.89.47-1.85.47-2.84,0-3.9-2.52-7.22-6.02-8.42v-4.09ZM65.69,29.22c2.71,0,4.91,2.2,4.91,4.91s-2.2,4.91-4.91,4.91-4.91-2.2-4.91-4.91,2.2-4.91,4.91-4.91ZM64.59,21.59v3.7c-4.39.55-7.8,4.3-7.8,8.83,0,2.4.96,4.58,2.51,6.19-4.63.11-9.32.32-14.11.61,2.14-5.8,4.93-11.75,8.35-17.84,3.53-.94,7.23-1.45,11.05-1.49ZM47.97,24.97c-2.9,5.53-5.28,10.95-7.15,16.25-4.44.32-8.98.73-13.64,1.2,4.94-7.76,12.2-13.9,20.79-17.46ZM24.89,46.46c.22.09.46.13.72.13.07,0,.14,0,.21-.01,4.67-.5,9.2-.9,13.64-1.24-2,6.55-3.18,12.92-3.56,19.14h-15.69c.28-6.45,1.94-12.55,4.68-18.02ZM20.21,68.48h15.54c-.04,6.46.81,12.75,2.55,18.89-4.14.35-8.22.79-12.24,1.33-3.44-6.01-5.53-12.89-5.86-20.22ZM28.45,92.43c3.64-.46,7.33-.84,11.08-1.15,1.98,5.67,4.74,11.22,8.26,16.65-7.81-3.27-14.5-8.68-19.35-15.5ZM64.59,111.38c-3.7-.04-7.3-.52-10.73-1.4-.06-.26-.17-.51-.33-.73-4.27-5.93-7.53-12-9.81-18.26,5.59-.37,11.33-.57,17.27-.61-2.52,1.58-4.2,4.37-4.2,7.55,0,4.54,3.41,8.29,7.8,8.83v4.62ZM65.69,102.83c-2.71,0-4.91-2.2-4.91-4.91s2.2-4.91,4.91-4.91,4.91,2.2,4.91,4.91-2.2,4.91-4.91,4.91ZM68.59,111.34v-5c3.5-1.2,6.02-4.52,6.02-8.42,0-.92-.14-1.8-.4-2.63l15.83-10.77,7.6,5.17c-.21.75-.33,1.55-.33,2.37,0,2.01.68,3.86,1.8,5.35-7.76,8.15-18.54,13.41-30.52,13.94ZM106.22,96.97c-2.71,0-4.91-2.2-4.91-4.91s2.2-4.91,4.91-4.91,4.91,2.2,4.91,4.91-2.2,4.91-4.91,4.91ZM108.19,83.37c-.63-.14-1.29-.23-1.97-.23-2.65,0-5.03,1.17-6.66,3.01l-5.96-4.05,17.74-12.06c-.37,4.68-1.45,9.16-3.15,13.33Z"></path></g></svg>