<svg version="1.2" baseProfile="tiny-ps" xmlns="http://www.w3.org/2000/svg" viewBox="0 0 80 51" width="80" height="51">
	<title>apple-ios-svg</title>
	<style>
		tspan { white-space:pre }
		.shp0 { fill: #000000 } 
	</style>
	<path id="Layer" fill-rule="evenodd" class="shp0" d="M2.96 4.44C2.96 5.31 2.42 5.96 1.51 5.96C0.75 5.96 0.18 5.31 0.18 4.44C0.18 3.61 0.79 2.92 1.59 2.92C2.42 2.92 2.96 3.61 2.96 4.44ZM0.85 50.04L0.85 15.16L2.28 15.16L2.28 50.04L0.85 50.04ZM50.03 25.19C50.03 42.78 40.23 50.77 29.5 50.77C18.54 50.77 9.67 42.12 9.67 25.92C9.67 9.27 18.85 0.34 30.27 0.34C41.46 0.33 50.03 9.13 50.03 25.19ZM29.57 49.25C41.61 49.25 48.52 38.57 48.52 25.4C48.52 13.19 42.98 2.05 30.36 2.05C17.73 2.05 11.12 12.54 11.12 25.55C11.12 38.89 17.61 49.25 29.57 49.25ZM55.3 46.26C57.71 47.86 61.86 49.41 65.44 49.41C72.23 49.41 78.26 44.68 78.26 37.72C78.26 31.26 74.24 27.89 67.42 25C61.31 22.4 55.82 19.59 55.82 12.69C55.82 5.49 61.51 0.41 69.24 0.41C73.4 0.41 76.54 1.57 77.99 2.59L77.41 3.84C76.17 2.97 72.82 1.86 69.18 1.86C61 1.86 57.44 8.01 57.44 12.54C57.44 18.79 62.31 20.89 68.58 23.87C75.88 27.43 79.75 30.57 79.75 37.4C79.75 44.74 74.49 50.7 65.15 50.7C61.29 50.7 56.84 49.39 54.65 47.72L55.3 46.26Z" />
</svg>