<svg version="1.2" baseProfile="tiny-ps" xmlns="http://www.w3.org/2000/svg" viewBox="0 0 80 80" width="80" height="80">
	<title>icons8-react-native-svg</title>
	<style>
		tspan { white-space:pre }
		.shp0 { fill: #4a90e2 } 
	</style>
	<path id="Layer" fill-rule="evenodd" class="shp0" d="M58.8 7.34C60.94 8.58 62.22 10.85 62.8 13.54C63.37 16.23 63.31 19.43 62.73 23.02C62.53 24.27 62.24 25.58 61.92 26.92C63.15 27.3 64.36 27.69 65.47 28.13C68.79 29.42 71.53 30.97 73.53 32.81C75.53 34.66 76.82 36.89 76.82 39.35C76.82 41.81 75.53 44.04 73.53 45.88C71.53 47.73 68.79 49.28 65.47 50.58C64.26 51.05 62.95 51.47 61.59 51.87C62.07 53.64 62.45 55.36 62.71 56.99C63.29 60.57 63.35 63.76 62.78 66.45C62.21 69.14 60.93 71.4 58.8 72.63C56.66 73.86 54.06 73.84 51.45 72.99C48.84 72.14 46.1 70.49 43.28 68.2C42.19 67.31 41.08 66.29 39.96 65.21C38.86 66.28 37.75 67.3 36.66 68.19C33.84 70.48 31.1 72.13 28.48 72.98C25.86 73.83 23.25 73.86 21.11 72.62C18.96 71.38 17.68 69.1 17.11 66.41C16.54 63.72 16.6 60.52 17.17 56.94C17.43 55.31 17.82 53.6 18.29 51.84C16.97 51.45 15.7 51.03 14.53 50.58C11.21 49.28 8.47 47.73 6.47 45.88C4.47 44.04 3.18 41.81 3.18 39.35C3.18 36.89 4.47 34.66 6.47 32.81C8.47 30.97 11.21 29.42 14.53 28.13C15.63 27.7 16.81 27.31 18.03 26.94C17.71 25.61 17.42 24.3 17.22 23.06C16.65 19.48 16.58 16.28 17.16 13.59C17.73 10.91 19.01 8.65 21.14 7.41C23.28 6.18 25.88 6.21 28.49 7.05C31.1 7.9 33.84 9.56 36.65 11.84C37.73 12.72 38.82 13.72 39.91 14.78C41.03 13.69 42.14 12.67 43.25 11.77C46.06 9.48 48.81 7.82 51.43 6.98C52.73 6.55 54.04 6.33 55.29 6.38C56.53 6.42 57.72 6.72 58.8 7.34ZM52.43 10.09C50.38 10.75 47.91 12.19 45.31 14.31C44.29 15.14 43.25 16.1 42.2 17.13C44.18 19.27 46.16 21.69 48.08 24.35C51.9 24.7 55.48 25.28 58.76 26.07C59.06 24.84 59.32 23.64 59.5 22.5C60.03 19.19 60.05 16.34 59.6 14.23C59.15 12.11 58.3 10.83 57.16 10.17C56.59 9.84 55.92 9.65 55.14 9.63C54.36 9.61 53.46 9.75 52.43 10.09ZM22.74 10.18C21.59 10.85 20.74 12.14 20.28 14.26C19.83 16.38 19.85 19.24 20.38 22.55C20.56 23.68 20.82 24.87 21.12 26.1C24.38 25.31 27.95 24.72 31.76 24.37C33.69 21.69 35.68 19.24 37.68 17.08C36.65 16.08 35.63 15.13 34.63 14.32C32.02 12.2 29.56 10.77 27.5 10.1C26.47 9.76 25.57 9.62 24.78 9.64C23.99 9.66 23.32 9.85 22.74 10.18ZM36.06 24.07C37.36 24.02 38.67 23.98 40 23.98C41.31 23.98 42.59 24.02 43.86 24.07C42.57 22.4 41.27 20.85 39.96 19.43C38.66 20.85 37.36 22.4 36.06 24.07ZM33.57 27.46C32.16 29.49 30.77 31.64 29.46 33.92C28.28 35.97 27.21 38.01 26.24 40.03C27.21 42.03 28.27 44.06 29.44 46.1C30.46 47.86 31.53 49.54 32.61 51.16C34.99 51.37 37.46 51.48 40 51.48C42.48 51.48 44.89 51.37 47.23 51.18C48.33 49.53 49.41 47.83 50.44 46.03C51.62 44 52.69 41.96 53.66 39.95C52.7 37.97 51.65 35.96 50.49 33.95C49.17 31.66 47.78 29.49 46.36 27.46C44.3 27.31 42.18 27.22 40 27.22C37.8 27.22 35.65 27.31 33.57 27.46ZM53.26 32.35C54 33.63 54.69 34.91 55.35 36.19C56.37 33.77 57.21 31.43 57.9 29.19C55.59 28.64 53.12 28.19 50.48 27.86C51.42 29.31 52.36 30.79 53.26 32.35ZM21.98 29.22C22.66 31.45 23.5 33.78 24.51 36.18C25.18 34.88 25.88 33.59 26.63 32.28C27.51 30.76 28.42 29.3 29.35 27.88C26.73 28.21 24.27 28.67 21.98 29.22ZM57.23 40.03C58.61 43.02 59.77 45.96 60.68 48.77C61.95 48.4 63.18 48 64.3 47.57C67.35 46.37 69.77 44.96 71.34 43.51C72.9 42.07 73.58 40.69 73.58 39.35C73.58 38.01 72.9 36.63 71.34 35.19C69.77 33.74 67.35 32.33 64.3 31.13C63.29 30.74 62.2 30.38 61.06 30.04C60.1 33.23 58.81 36.58 57.23 40.03ZM15.7 31.13C12.65 32.33 10.23 33.74 8.66 35.19C7.1 36.63 6.42 38.01 6.42 39.35C6.42 40.69 7.1 42.07 8.66 43.51C10.23 44.96 12.65 46.37 15.7 47.57C16.78 47.99 17.97 48.37 19.2 48.74C20.11 45.91 21.28 42.96 22.67 39.94C21.11 36.53 19.84 33.21 18.88 30.06C17.77 30.39 16.69 30.75 15.7 31.13ZM48 40C48 44.4 44.4 48 40 48C35.6 48 32 44.4 32 40C32 35.6 35.6 32 40 32C44.4 32 48 35.6 48 40ZM22.37 49.57C24.29 50.02 26.33 50.4 28.48 50.69C27.87 49.72 27.27 48.72 26.68 47.7C25.92 46.39 25.22 45.08 24.55 43.78C23.71 45.76 22.98 47.7 22.37 49.57ZM53.28 47.67C52.68 48.7 52.06 49.71 51.44 50.7C53.6 50.41 55.65 50.03 57.57 49.58C56.96 47.71 56.23 45.77 55.39 43.78C54.72 45.08 54.02 46.37 53.28 47.67ZM20.4 57.46C19.87 60.77 19.86 63.62 20.31 65.73C20.76 67.84 21.6 69.13 22.74 69.79C23.88 70.45 25.42 70.54 27.47 69.87C29.53 69.2 31.99 67.77 34.59 65.65C35.6 64.83 36.64 63.87 37.68 62.86C35.35 60.34 33.03 57.45 30.81 54.23C27.48 53.89 24.35 53.36 21.45 52.68C21 54.35 20.64 55.95 20.4 57.46ZM49.11 54.24C46.87 57.47 44.54 60.38 42.2 62.91C43.25 63.93 44.29 64.89 45.3 65.72C47.91 67.84 50.37 69.28 52.43 69.95C54.5 70.62 56.04 70.53 57.2 69.86C58.35 69.2 59.2 67.9 59.65 65.78C60.1 63.66 60.09 60.81 59.55 57.49C59.31 55.98 58.95 54.37 58.5 52.69C55.59 53.38 52.45 53.9 49.11 54.24ZM39.92 60.56C41.57 58.76 43.22 56.77 44.85 54.57C43.26 54.66 41.65 54.71 40 54.71C38.29 54.71 36.63 54.65 34.99 54.56C36.61 56.76 38.27 58.76 39.92 60.56Z" />
</svg>