<svg version="1.2" baseProfile="tiny-ps" xmlns="http://www.w3.org/2000/svg" viewBox="0 0 80 80" width="80" height="80">
	<title>icons8-bootstrap-svg</title>
	<style>
		tspan { white-space:pre }
		.shp0 { fill: #673ab7 } 
		.shp1 { fill: #ffffff } 
	</style>
	<path id="Layer" class="shp0" d="M70 61.67C70 66.27 66.27 70 61.67 70L18.33 70C13.73 70 10 66.27 10 61.67L10 18.33C10 13.73 13.73 10 18.33 10L61.67 10C66.27 10 70 13.73 70 18.33L70 61.67Z" />
	<path id="Layer" fill-rule="evenodd" class="shp1" d="M56.67 48.17C56.67 52.08 55.47 55.02 53.07 57C50.65 58.95 47.1 59.97 42.38 60L25 60L25 20L40.58 20C45.57 20 48.5 21.27 51.1 23.15C53.7 25.03 55 27.78 55 31.37C55 33.43 54.53 35.2 53.62 36.67C52.08 38.97 50.38 39.58 50.38 39.58C52.4 40.13 53.97 41.17 55.05 42.67C56.13 44.17 56.67 46 56.67 48.17ZM35 35.83C35 35.83 41.95 35.83 42.08 35.83C44.62 35.83 46.67 33.78 46.67 31.25C46.67 28.72 44.62 26.67 42.08 26.67C41.95 26.67 35 26.67 35 26.67L35 35.83ZM48.33 48.33C48.33 45.57 46.1 43.33 43.33 43.33L35 43.33L35 53.33L43.33 53.33C46.1 53.33 48.33 51.1 48.33 48.33Z" />
</svg>