<svg version="1.2" baseProfile="tiny-ps" xmlns="http://www.w3.org/2000/svg" viewBox="0 0 80 80" width="80" height="80">
	<title>icons8-html-5 (1)-svg</title>
	<style>
		tspan { white-space:pre }
		.shp0 { fill: #e65100 } 
		.shp1 { fill: #ff6d00 } 
		.shp2 { fill: #ffffff } 
		.shp3 { fill: #eeeeee } 
	</style>
	<path id="Layer" class="shp0" d="M68.33 8.33L11.67 8.33L16.67 65L40 71.67L63.33 65L68.33 8.33L68.33 8.33Z" />
	<path id="Layer" class="shp1" d="M40 13.33L40 66.5L58.67 61.17L62.83 13.33L40 13.33Z" />
	<path id="Layer" fill-rule="evenodd" class="shp2" d="M40 35L54.33 35L53.17 54.17L40 58.5L40 51.5L46.83 49.17L47.33 41.67L40 41.67L40 35ZM40 28.33L40 21.67L55.33 21.67L54.83 28.33L40 28.33Z" />
	<path id="Layer" fill-rule="evenodd" class="shp3" d="M33.17 49.17L32.83 45L26.17 45L26.83 54.17L40 58.5L40 51.5L33.17 49.17ZM31.83 28.33L40 28.33L40 21.67L24.83 21.67L26 41.67L40 41.67L40 35L32.33 35L31.83 28.33Z" />
</svg>