<svg version="1.2" baseProfile="tiny-ps" xmlns="http://www.w3.org/2000/svg" viewBox="0 0 80 80" width="80" height="80">
	<title>icons8-npm-svg</title>
	<style>
		tspan { white-space:pre }
		.shp0 { fill: #d50000 } 
		.shp1 { fill: #ffffff } 
	</style>
	<path id="Layer" class="shp0" d="M0 25L80 25L80 53.33L40 53.33L40 58.33L21.67 58.33L21.67 53.33L0 53.33L0 25Z" />
	<path id="Layer" fill-rule="evenodd" class="shp1" d="M5 30L21.67 30L21.67 48.33L18.33 48.33L18.33 35L13.33 35L13.33 48.33L5 48.33L5 30ZM43.33 30L43.33 48.33L35 48.33L35 53.33L26.67 53.33L26.67 30L43.33 30ZM40 35L35 35L35 43.33L40 43.33L40 35ZM75 30L75 48.33L71.67 48.33L71.67 35L66.67 35L66.67 48.33L61.67 48.33L61.67 35L56.67 35L56.67 48.33L48.33 48.33L48.33 30L75 30Z" />
</svg>